<svg xmlns="http://www.w3.org/2000/svg" width="545" height="416" viewBox="0 0 545 416">
    <g fill="none" fill-rule="evenodd">
        <g>
            <g>
                <path fill="#FFF" d="M141.305 80.094c-1.112-5.211-9.272-6.275-8.74-10.522.202-1.598 1.182-3.203 4.082-5.334l.02-.016c10.264-7.528 28.937-10.244 35.669-2.496 1.309 1.506 2.435 3.717 4.993 4.28 3.838.844 7.11-2.858 8.382-1.784.907.766-.04 3.25-1.07 5.886-3.076 7.87-4.888 11.957-5.885 14.623-3.347 8.952-.604 10.16-3.21 13.02-3.598 3.945-9.534 2.418-15.065 2.476-3.118.033-6.107.567-8.476 2.873-4.19 4.08-2.047 9.417-6.242 11.414-3.665 1.744-9.428-.368-11.949-4.102-3.642-5.394-.121-13.582 1.784-18.012 3.191-7.421 6.475-8.703 5.707-12.306zm118.692 229.403c-2.959-5.208 15.21-16.935 10.938-29.962-2.293-6.994-9.745-10.353-9.033-18.07.461-5.039 3.965-7.18 2.852-9.036-1.672-2.785-10.593.331-25.208 3.804-25.645 6.096-31.23 4.352-33.763 3.331-5.112-2.06-8.745-5.578-11.234-8.815-2.04-2.648-3.313-5.102-3.984-6.405-5.186-10.049-6.913-25.355.475-34.24 5.356-6.441 12.701-6.138 15.694-13.792 1.735-4.437-1.262-6.633.475-10.463 2.175-4.792 7.611-4.819 16.883-8.322 16.374-6.185 20.107-13.917 26.393-11.413 4.638 1.846 3.391 6.363 9.036 9.51 8.67 4.834 21.574-.26 21.64-3.09.036-1.492-3.5-2.138-3.33-3.567.214-1.781 5.785-1.455 12.128-4.043 3.116-1.27 10.174-4.15 11.889-10.224 1.377-4.872-.884-11.102-4.043-11.89-3.444-.86-6.09 5.223-9.273 4.28-2.796-.827-4.782-6.705-3.328-11.413.44-1.437 1.159-2.609 2.025-3.605 3.515-4.057 9.477-5.143 9.389-8.76-.078-3.093-4.54-6.442-8.8-6.182-3.705.225-6.745 3.148-7.847 6.182-1.468 4.042.86 7.278 1.458 10.503.247 1.317.204 2.633-.507 4.002-1.648 3.176-4.81 2.64-5.469 5.47-.968 4.163 5.219 8.151 4.043 9.986-.616.96-2.888.769-4.518.238-5.536-1.804-5.16-8.016-10.224-11.89-5.927-4.534-14.83-2.443-14.98-1.426-.194 1.306 13.786 2.705 14.74 8.322.131.762.128 2.23-.71 2.853-1.201.89-3.498-.397-4.994-1.188-5.998-3.165-10.71-5.653-14.745-5.232-3.096.324-5.156 2.356-9.272 6.42-2.53 2.497-5.192 5.192-5.945 9.274-.52 2.816.454 3.118 0 5.47-1.01 5.224-7.158 10.667-13.792 10.224-.84-.056-4.843-.323-7.609-3.567-2.521-2.957-3.386-7.647-1.664-10.938 3.003-5.739 11.972-3.579 13.791-8.56 1.26-3.448-2.695-5.423-1.664-10.7.584-2.989 2.08-3.521 4.253-7.391.164-.293.33-.6.503-.932 2.804-5.437 1.636-6.979 3.329-9.987 4.283-7.617 14.812-3.15 21.162-10.462 4.831-5.565 4.856-15.204.95-20.926-2.792-4.092-7.888-6.611-9.272-5.469-1.444 1.192 2.367 5.363 2.141 12.365-.024.669-.447 10.242-6.183 12.84-4.96 2.248-12.02-1.569-15.456-6.182-7.546-10.13-1.532-29.364 9.986-36.381 4.648-2.831 12.016-4.786 14.981-1.902 2.937 2.856.17 9.114 2.853 10.462 1.64.824 4.712-.49 5.708-2.615 1.617-3.448-3.36-6.599-4.518-13.554-1.007-6.04 2.134-7.33 1.902-12.365-.363-7.9-8.413-11.616-24.017-24.967-11.11-9.508-16.665-14.261-15.931-16.883.333-1.192 1.658-2.18 3.752-2.962C200.514 1.829 186.337 0 171.73 0c-15.453 0-30.424 2.053-44.669 5.88l-.75.204c-.783 1.807-2.807 4.135-6.844 7.133-26.61 19.758-33.114 27.54-31.388 31.388 1.862 4.151 13.005 3.579 13.554 7.847.447 3.473-6.62 6.252-5.707 9.274.606 2.006 4.247 2.52 5.765 2.734 2.723.385 8.282.306 9.929-2.734 1.726-3.186-2.81-6-2.14-11.414.544-4.402 4.306-8.733 8.56-9.987 3.74-1.103 7.199.377 11.889 3.617 1.967 1.36 4.145 3.021 6.658 4.943 4.79 3.664 8.514 6.51 7.847 8.56-.615 1.891-4.392 1.337-9.73 2.013-3.014.381-6.521 1.153-10.244 2.981-2.475 1.215-9.333 4.582-9.987 9.987-.509 4.21 3.26 5.396 3.567 9.987.583 8.746-12.14 18.752-17.12 16.407-.644-.303-1.137-.803-2.8-4.539-3.166-7.122-3.38-9.813-5.047-13.295-.832-1.734-4.713-9.833-9.988-9.987-6.687-.195-11.066 12.514-11.413 13.554-1.745 5.23-3.015 14.17.713 16.407 2.712 1.627 5.212-2.007 10.7-2.14 9.98-.242 17.615 11.387 19.975 14.98 4.753 7.242 9.085 18.587 5.706 21.401-1.442 1.202-5.737-.133-14.267-2.853-8.858-2.825-11.492-4.304-13.554-2.854-2.85 2.007-.15 6.482-2.853 10.7-3.34 5.215-9.92 2.221-18.812 6.063l-.009.004c-5.21 2.254-8.468 5.669-11.037 8.885-.988 1.237-1.875 2.445-2.73 3.546-2.228 2.863-4.253 5.005-7.341 5.067-.238.005-.482-.003-.732-.024 0 0-.506-.04-5.195-2.438l-.608-.312c-.63-.325-1.328-.688-2.102-1.094l-.798-.42c-.55-.29-1.133-.6-1.753-.93l-.958-.512c-1.293-11.611-2.968-14.153-4.28-14.268-3.663-.318-10.966 17.728-4.993 24.968 2.063 2.502 4.934 2.77 5.706 5.707 1.018 3.874-3.393 5.634-3.566 9.987-.283 7.098 11.2 8.754 12.84 17.834 1.13 6.258-3.575 9.617-1.427 12.84 2.575 3.865 9.842-.203 18.548 1.427 11.193 2.096 13.437 11.491 31.387 29.96 6.151 6.33 12.022 12.372 20.688 18.55 20.128 14.346 32.402 13.086 35.667 22.111 3.539 9.784-4.986 22.296-12.84 28.536-11.766 9.347-25.92 7.607-29.783 7.131-2.142-.26-4.176-.669-6.134-1.222 24.812 13.921 53.426 21.87 83.9 21.87 36.872 0 71.028-11.625 99.008-31.403-5.765.261-9.65-.64-10.741-2.56z" opacity=".1" transform="translate(-23) translate(23 2) translate(88.211 19.135)"/>
                <path fill="#FFF" d="M23.699 245.77c1.573-8.028 7.028-10.442 6.063-18.546-1.153-9.69-9.45-10.43-11.235-22.114-.915-5.986.737-9.234-1.962-15.516-1.666-3.878-3.339-5.068-5.35-8.203-4.543-7.082-4.54-14.308-4.815-20.509-.31-6.948-1.106-15.635-2.359-26.301C1.403 146.545 0 158.973 0 171.731c0 53.035 24.047 100.448 61.826 131.948-4.563-4.683-9.524-10.24-15.3-16.71-15.363-17.217-25.287-28.648-22.827-41.2" opacity=".1" transform="translate(-23) translate(23 2) translate(88.211 19.135)"/>
                <path fill="#000" d="M330.774 106.865C310.38 56.915 267.153 18.72 214.054 5.262c-2.095.781-3.42 1.77-3.753 2.962-.734 2.622 4.821 7.375 15.931 16.883 15.604 13.35 23.654 17.067 24.017 24.967.232 5.034-2.91 6.326-1.902 12.365 1.159 6.955 6.135 10.106 4.518 13.554-.996 2.125-4.067 3.44-5.708 2.615-2.684-1.348.084-7.606-2.853-10.462-2.965-2.884-10.333-.93-14.98 1.902-11.52 7.017-17.533 26.25-9.987 36.381 3.436 4.613 10.496 8.43 15.456 6.183 5.736-2.599 6.159-12.172 6.183-12.84.226-7.003-3.585-11.174-2.14-12.366 1.383-1.142 6.479 1.377 9.272 5.47 3.905 5.72 3.88 15.36-.951 20.925-6.35 7.312-16.88 2.845-21.162 10.462-1.693 3.008-.525 4.55-3.33 9.987-.171.333-.338.64-.502.932-2.173 3.87-3.67 4.402-4.253 7.39-1.031 5.278 2.924 7.253 1.664 10.701-1.819 4.981-10.788 2.821-13.791 8.56-1.722 3.29-.857 7.981 1.664 10.938 2.766 3.244 6.769 3.51 7.61 3.567 6.633.443 12.781-5 13.791-10.224.454-2.352-.52-2.654 0-5.47.753-4.082 3.415-6.777 5.945-9.274 4.116-4.064 6.176-6.096 9.272-6.42 4.036-.42 8.747 2.067 14.745 5.232 1.496.791 3.793 2.078 4.993 1.188.839-.622.842-2.091.712-2.853-.955-5.617-14.935-7.016-14.742-8.322.152-1.017 9.054-3.108 14.981 1.426 5.064 3.874 4.688 10.086 10.224 11.89 1.63.53 3.902.722 4.518-.238 1.176-1.835-5.011-5.823-4.043-9.987.659-2.83 3.82-2.293 5.47-5.469.71-1.369.753-2.685.506-4.002-.599-3.225-2.926-6.46-1.458-10.503 1.102-3.034 4.142-5.957 7.846-6.182 4.262-.26 8.723 3.089 8.8 6.182.089 3.617-5.873 4.703-9.388 8.76-.866.996-1.584 2.168-2.025 3.605-1.454 4.708.532 10.586 3.328 11.413 3.184.943 5.829-5.14 9.273-4.28 3.159.788 5.42 7.018 4.043 11.89-1.715 6.073-8.773 8.953-11.89 10.224-6.342 2.588-11.913 2.262-12.128 4.043-.169 1.429 3.367 2.075 3.332 3.567-.067 2.83-12.97 7.924-21.64 3.09-5.646-3.147-4.4-7.664-9.037-9.51-6.286-2.504-10.02 5.228-26.393 11.413-9.272 3.503-14.708 3.53-16.883 8.322-1.737 3.83 1.26 6.026-.475 10.463-2.993 7.654-10.338 7.35-15.694 13.792-7.388 8.885-5.66 24.191-.475 34.24.671 1.303 1.945 3.757 3.984 6.405 2.489 3.237 6.122 6.755 11.234 8.815 2.534 1.021 8.118 2.765 33.764-3.331 14.614-3.473 23.535-6.59 25.207-3.804 1.113 1.856-2.39 3.997-2.852 9.037-.712 7.716 6.74 11.075 9.033 18.07 4.271 13.026-13.897 24.753-10.938 29.961 1.091 1.92 4.976 2.821 10.74 2.56 36.583-25.859 62.597-65.66 70.33-111.668 1.564-9.32 2.392-18.893 2.392-28.659 0-22.954-4.515-44.85-12.685-64.865M123.747 315.681c7.854-6.24 16.379-18.752 12.84-28.536-3.265-9.025-15.539-7.765-35.667-22.112-8.666-6.177-14.537-12.22-20.688-18.548-17.95-18.47-20.194-27.865-31.387-29.961-8.706-1.63-15.973 2.438-18.548-1.427-2.148-3.223 2.558-6.582 1.427-12.84-1.64-9.08-13.123-10.736-12.84-17.834.173-4.353 4.584-6.113 3.566-9.987-.772-2.937-3.643-3.205-5.706-5.707-5.973-7.24 1.33-25.286 4.993-24.968 1.312.115 2.987 2.657 4.28 14.268l.958.512c.62.33 1.204.64 1.753.93l.798.42c.774.406 1.472.769 2.102 1.094l.608.312c4.689 2.397 5.195 2.438 5.195 2.438.25.02.494.029.732.024 3.088-.062 5.113-2.204 7.34-5.067.856-1.101 1.743-2.309 2.731-3.546 2.57-3.216 5.826-6.631 11.037-8.885l.009-.004c8.891-3.842 15.473-.848 18.812-6.062 2.702-4.22.003-8.694 2.853-10.7 2.062-1.451 4.696.028 13.554 2.853 8.53 2.72 12.825 4.055 14.267 2.853 3.38-2.814-.953-14.159-5.706-21.4-2.36-3.594-9.994-15.223-19.975-14.98-5.488.132-7.988 3.766-10.7 2.139-3.728-2.237-2.458-11.177-.713-16.407.347-1.04 4.726-13.749 11.413-13.554 5.275.154 9.156 8.253 9.988 9.987 1.668 3.482 1.88 6.173 5.048 13.295 1.662 3.736 2.155 4.236 2.799 4.54 4.98 2.344 17.703-7.662 17.12-16.408-.306-4.591-4.076-5.778-3.567-9.987.654-5.405 7.512-8.772 9.987-9.987 3.723-1.828 7.23-2.6 10.244-2.981 5.338-.676 9.115-.122 9.73-2.013.667-2.05-3.056-4.896-7.847-8.56-2.513-1.922-4.691-3.584-6.658-4.943-4.69-3.24-8.15-4.72-11.89-3.617-4.253 1.254-8.015 5.585-8.56 9.987-.669 5.415 3.867 8.228 2.141 11.414-1.647 3.04-7.206 3.119-9.929 2.734-1.518-.214-5.16-.728-5.765-2.734-.913-3.022 6.154-5.801 5.707-9.274-.55-4.268-11.692-3.696-13.554-7.847-1.726-3.847 4.778-11.63 31.388-31.388 4.037-2.998 6.06-5.326 6.843-7.133-29.936 8.19-56.605 24.273-77.637 45.88C26.804 74.429 11.04 102.856 4.041 134.58c1.253 10.666 2.05 19.353 2.359 26.301.276 6.201.272 13.427 4.815 20.51 2.011 3.134 3.684 4.324 5.35 8.202 2.699 6.282 1.047 9.53 1.962 15.516 1.785 11.684 10.082 12.425 11.235 22.114.965 8.104-4.49 10.518-6.063 18.546-2.46 12.551 7.464 23.982 22.827 41.2 5.776 6.469 10.737 12.026 15.3 16.71 9.169 9.416 16.725 15.297 26.004 17.91 1.958.553 3.992.962 6.134 1.222 3.864.476 18.017 2.216 29.783-7.13" opacity=".083" transform="translate(-23) translate(23 2) translate(88.211 19.135)"/>
                <path fill="#000" d="M133.814 110.412c2.521 3.734 8.284 5.846 11.95 4.102 4.194-1.997 2.05-7.334 6.241-11.414 2.369-2.306 5.358-2.84 8.476-2.873 5.531-.058 11.467 1.47 15.065-2.477 2.606-2.858-.137-4.067 3.21-13.019.997-2.666 2.809-6.753 5.885-14.623 1.03-2.637 1.977-5.12 1.07-5.886-1.272-1.074-4.544 2.628-8.382 1.784-2.558-.563-3.684-2.774-4.993-4.28-6.732-7.748-25.405-5.032-35.668 2.496l-.021.016c-2.9 2.131-3.88 3.736-4.081 5.334-.533 4.247 7.627 5.31 8.739 10.522.768 3.603-2.516 4.885-5.707 12.306-1.905 4.43-5.426 12.618-1.784 18.012" opacity=".083" transform="translate(-23) translate(23 2) translate(88.211 19.135)"/>
            </g>
            <g fill="#FFF" opacity=".45">
                <path d="M59.498 67.195h-.007c-.812-.015-1.627-.023-2.442-.023h-.024c-.583 0-1.167.004-1.75.012h-.005c-.193 0-.35-.155-.352-.347-.003-.195.152-.355.347-.358.595-.008 1.185 0 1.784-.012.82 0 1.638.008 2.456.023.194.004.349.164.345.359-.004.192-.16.346-.352.346zm8.445.388h-.025c-1.42-.103-2.837-.187-4.212-.25-.194-.01-.345-.174-.336-.369.01-.194.161-.34.369-.335 1.38.064 2.803.148 4.229.25.194.014.34.183.326.377-.013.186-.168.327-.35.327zm-21.116.047c-.179 0-.332-.136-.35-.318-.019-.193.123-.366.317-.384 1.36-.132 2.783-.237 4.231-.312.189-.01.36.14.37.334.01.194-.139.36-.333.37-1.438.074-2.851.178-4.2.309l-.035.001zm29.536.745l-.041-.002c-1.41-.163-2.822-.311-4.198-.44-.194-.02-.336-.191-.318-.385.018-.193.187-.334.384-.317 1.38.13 2.798.279 4.213.443.193.022.332.196.31.39-.022.18-.174.311-.35.311zm-37.886.548c-.162 0-.307-.111-.344-.275-.042-.19.077-.378.267-.42 1.322-.296 2.728-.559 4.18-.78.19-.028.371.103.4.295.03.193-.102.372-.295.402-1.434.219-2.824.478-4.131.77l-.077.008zm46.268.59l-.055-.004c-1.379-.215-2.784-.42-4.179-.61-.193-.026-.328-.203-.301-.396.026-.192.204-.327.396-.301 1.399.19 2.81.395 4.193.61.192.03.323.21.293.403-.027.174-.177.298-.347.298zM93.08 71l-.075-.008c-.015-.003-1.559-.333-4.149-.791-.191-.034-.32-.217-.285-.408.034-.192.218-.32.408-.286 2.604.461 4.159.793 4.174.796.19.041.311.228.27.419-.035.165-.181.278-.343.278zm-62.629.527c-.134 0-.261-.077-.32-.206-.081-.178-.003-.386.174-.467 1.227-.558 2.567-1.07 3.984-1.522.185-.06.384.043.443.229.06.185-.043.383-.229.442-1.39.444-2.705.946-3.906 1.492-.047.022-.097.032-.146.032zm-6.95 4.711c-.089 0-.177-.033-.245-.1-.14-.135-.143-.358-.008-.497.953-.983 2.067-1.9 3.31-2.726.161-.108.38-.065.488.098.108.162.064.38-.098.488-1.202.799-2.276 1.684-3.194 2.63-.07.071-.161.107-.253.107zm-4.062 7.277l-.086-.011c-.188-.047-.303-.238-.256-.427.353-1.414.882-2.759 1.575-3.997.095-.17.309-.231.48-.135.169.094.23.31.134.479-.662 1.184-1.168 2.47-1.505 3.823-.04.16-.184.268-.342.268zm-.236 8.385c-.17 0-.321-.125-.348-.3-.202-1.327-.305-2.622-.305-3.85 0-.14.001-.28.004-.42.004-.192.161-.344.352-.344h.007c.195.003.349.164.345.359-.002.134-.004.27-.004.405 0 1.192.1 2.452.298 3.744.03.193-.103.372-.295.402l-.054.004zm2.26 8.126c-.14 0-.274-.085-.328-.225-.535-1.38-.993-2.737-1.36-4.034-.054-.187.055-.381.242-.435.187-.052.382.056.435.243.362 1.276.813 2.612 1.34 3.971.07.182-.02.386-.201.456-.043.016-.086.024-.128.024zm4.374 7.132c-.098 0-.196-.041-.266-.121-.97-1.118-1.826-2.268-2.542-3.418-.103-.166-.053-.383.112-.485.165-.103.382-.053.485.112.697 1.12 1.53 2.239 2.477 3.329.127.146.112.369-.035.496-.066.058-.149.087-.23.087zm6.22 5.678c-.074 0-.148-.023-.21-.07-1.18-.884-2.287-1.792-3.288-2.698-.144-.13-.156-.353-.025-.497.13-.145.353-.156.498-.025.985.891 2.074 1.785 3.237 2.656.155.117.187.337.07.493-.069.092-.175.141-.282.141zm7.096 4.58c-.059 0-.118-.015-.173-.046-1.27-.715-2.494-1.45-3.64-2.186-.163-.105-.21-.323-.106-.486.105-.164.323-.212.487-.106 1.134.727 2.347 1.456 3.605 2.164.169.096.23.31.134.48-.065.115-.184.18-.307.18zm7.547 3.803c-.048 0-.098-.01-.145-.031-1.317-.598-2.604-1.212-3.828-1.827-.174-.087-.244-.299-.157-.472.088-.174.298-.244.473-.157 1.215.61 2.495 1.22 3.803 1.814.177.08.256.29.175.467-.058.13-.187.206-.32.206zm7.81 3.238c-.04 0-.083-.008-.124-.023-1.344-.51-2.67-1.036-3.94-1.562-.18-.074-.265-.28-.191-.46.074-.18.28-.265.46-.19 1.265.522 2.584 1.045 3.921 1.553.182.07.273.273.204.455-.053.14-.187.227-.33.227zm7.978 2.805c-.036 0-.073-.006-.11-.018-1.362-.444-2.712-.9-4.012-1.357-.184-.064-.28-.265-.216-.449.065-.184.266-.28.449-.215 1.295.454 2.64.909 3.998 1.352.185.06.286.259.226.444-.049.148-.187.243-.335.243zm262.678 1.538c-.126 0-.25-.07-.313-.192-.088-.173-.021-.385.155-.473 1.303-.667 2.532-1.359 3.652-2.057.165-.103.384-.052.486.113.102.165.053.382-.113.485-1.137.708-2.384 1.41-3.705 2.086-.053.026-.105.038-.162.038zm-254.588.923c-.032 0-.065-.005-.097-.014-1.374-.39-2.74-.792-4.062-1.193-.187-.057-.292-.254-.235-.44.056-.185.25-.29.44-.234 1.317.4 2.68.8 4.05 1.19.187.053.296.248.242.435-.044.154-.185.256-.338.256zm8.17 2.177l-.085-.01c-1.385-.347-2.764-.702-4.1-1.058-.188-.05-.3-.243-.249-.431.05-.188.244-.299.43-.25 1.332.355 2.708.71 4.09 1.056.188.047.303.238.256.427-.04.16-.183.266-.342.266zm238.674.277c-.14 0-.274-.087-.327-.228-.07-.182.02-.385.204-.453 1.36-.51 2.673-1.04 3.902-1.574.18-.077.387.005.465.183.077.179-.004.386-.183.463-1.243.539-2.568 1.072-3.937 1.587-.04.015-.081.022-.124.022zM86.98 133.84l-.076-.008c-1.384-.307-2.772-.624-4.127-.943-.189-.044-.306-.234-.262-.423.044-.19.235-.307.424-.262 1.351.318 2.737.634 4.117.94.19.043.31.23.268.42-.037.165-.182.276-.344.276zm222.421 1c-.151 0-.292-.099-.338-.252-.053-.187.053-.383.24-.438 1.383-.406 2.736-.828 4.025-1.254.183-.062.383.04.443.224.064.185-.038.384-.222.445-1.295.428-2.658.853-4.046 1.261-.035.01-.067.014-.102.014zm-214.144.733l-.068-.007c-1.392-.275-2.788-.558-4.148-.843-.19-.04-.312-.226-.272-.416.04-.19.222-.313.417-.273 1.357.284 2.75.567 4.14.841.19.038.314.223.277.413-.034.168-.18.285-.346.285zm205.974 1.43c-.162 0-.307-.11-.345-.272-.043-.189.074-.379.264-.424 1.39-.331 2.768-.676 4.092-1.025.183-.049.38.062.43.25.049.189-.064.381-.25.43-1.332.351-2.712.698-4.11 1.03l-.081.01zm-197.661.12l-.062-.006c-1.398-.246-2.786-.497-4.163-.754-.191-.036-.318-.22-.282-.41.035-.192.218-.319.41-.282 1.376.256 2.762.507 4.158.752.191.034.32.217.285.408-.03.171-.179.291-.346.291zm8.342 1.386l-.055-.004c-1.401-.22-2.794-.445-4.177-.675-.192-.031-.322-.213-.29-.405.031-.192.214-.321.405-.29 1.382.23 2.772.454 4.171.674.192.03.323.21.293.402-.027.174-.177.298-.347.298zm181.054.279c-.166 0-.314-.116-.346-.284-.038-.191.089-.376.279-.414 1.398-.274 2.789-.56 4.134-.85.19-.04.377.08.42.27.038.19-.082.377-.272.418-1.349.291-2.743.578-4.148.854l-.067.006zm-172.69.959l-.049-.003c-1.403-.196-2.8-.397-4.187-.602-.193-.028-.326-.208-.297-.4.028-.192.205-.326.4-.297 1.386.206 2.78.406 4.181.601.193.027.327.205.3.398-.024.176-.175.303-.348.303zm164.368.53c-.169 0-.32-.123-.349-.296-.028-.192.102-.373.293-.404 1.408-.23 2.81-.468 4.162-.71.19-.033.373.093.409.285.035.191-.095.374-.286.408-1.355.243-2.76.482-4.173.712l-.056.005zm-155.984.571l-.043-.002c-1.405-.174-2.805-.352-4.197-.535-.193-.025-.33-.202-.304-.395.025-.192.2-.329.395-.303 1.391.183 2.789.36 4.192.533.193.024.33.2.306.393-.022.179-.174.31-.349.31zm147.622.673c-.174 0-.325-.128-.35-.305-.025-.192.11-.37.303-.396 1.404-.19 2.811-.39 4.18-.594.196-.027.372.105.4.297.03.193-.104.372-.296.4-1.373.204-2.782.404-4.19.595l-.047.003zm-139.223.301l-.038-.002c-1.406-.153-2.808-.31-4.204-.472-.193-.022-.331-.197-.309-.39.022-.193.198-.33.39-.31 1.394.162 2.795.319 4.2.472.193.02.332.194.311.388-.02.18-.172.314-.35.314zm130.832.736c-.177 0-.329-.133-.35-.313-.02-.193.118-.367.312-.389 1.418-.159 2.83-.325 4.193-.494.196-.022.37.114.393.307.024.193-.113.368-.306.392-1.367.17-2.78.336-4.202.495l-.04.002zm-122.419.117l-.033-.001c-1.408-.133-2.811-.27-4.21-.412-.194-.02-.335-.193-.316-.387.02-.193.191-.334.386-.315 1.398.142 2.8.28 4.206.412.194.019.336.19.318.384-.018.182-.171.319-.35.319zm8.423.739l-.029-.002c-1.408-.114-2.813-.232-4.215-.355-.193-.017-.337-.188-.32-.382.017-.193.19-.337.382-.32 1.4.123 2.804.241 4.21.356.194.015.338.185.323.379-.015.184-.169.324-.35.324zm105.586 0c-.18 0-.334-.136-.35-.32-.018-.193.124-.364.318-.382 1.413-.13 2.815-.265 4.204-.407.202-.017.367.122.386.315.02.193-.121.366-.315.386-1.392.142-2.795.278-4.21.408h-.033zm-97.175.626l-.024-.001c-1.406-.095-2.81-.196-4.21-.3-.194-.014-.34-.183-.326-.377.015-.194.18-.342.378-.325 1.4.104 2.801.204 4.205.3.194.013.34.18.328.375-.013.186-.168.328-.351.328zm88.75.07c-.183 0-.338-.14-.352-.326-.014-.194.132-.362.326-.376 1.413-.105 2.817-.214 4.21-.33.19-.015.365.13.38.323.017.194-.127.364-.321.38-1.396.115-2.802.224-4.217.329h-.027zm-80.32.45h-.02c-1.407-.078-2.814-.16-4.22-.247-.194-.012-.342-.18-.33-.374.012-.194.184-.343.373-.33 1.405.087 2.81.17 4.216.247.194.011.343.177.332.371-.01.188-.165.333-.351.333zm71.883.1c-.186 0-.34-.144-.351-.331-.012-.194.137-.36.331-.372 1.414-.08 2.82-.167 4.216-.258.204-.013.362.135.375.329.012.194-.135.362-.329.374-1.399.091-2.806.178-4.222.259h-.02zm-63.433.316h-.016c-1.41-.06-2.82-.126-4.23-.195-.194-.01-.344-.175-.334-.37.01-.194.175-.342.369-.334 1.408.07 2.817.135 4.226.195.194.008.344.173.336.367-.008.19-.164.337-.351.337zm54.99.101c-.188 0-.344-.148-.352-.337-.009-.194.142-.358.337-.367 1.413-.059 2.82-.123 4.22-.191.19-.012.36.14.369.334.01.194-.14.36-.335.369-1.401.069-2.81.133-4.225.192h-.015zm-46.522.21h-.011c-1.413-.043-2.826-.09-4.239-.143-.194-.007-.346-.17-.339-.364.008-.195.177-.346.365-.34 1.412.053 2.823.1 4.234.143.194.006.347.168.341.363-.005.19-.162.341-.351.341zm38.072.082c-.19 0-.347-.15-.352-.342-.005-.194.148-.356.342-.362 1.413-.039 2.821-.082 4.223-.13.2-.01.358.145.364.34.007.194-.145.357-.34.363-1.403.049-2.813.092-4.227.131h-.01zm-29.606.125h-.006c-1.409-.025-2.818-.056-4.23-.09-.194-.005-.348-.166-.343-.36.005-.195.16-.36.36-.344 1.41.034 2.819.064 4.226.09.194.003.349.164.345.358-.003.193-.16.346-.352.346zm21.154.05c-.192 0-.35-.155-.352-.347-.003-.195.153-.355.347-.358 1.413-.02 2.82-.044 4.225-.072.212-.002.355.15.36.345.003.194-.151.355-.346.359-1.405.029-2.815.053-4.23.073h-.004zm-12.68.051h-.001c-1.41-.008-2.822-.02-4.236-.037-.195-.002-.35-.162-.349-.356.003-.195.15-.363.357-.349 1.413.017 2.823.03 4.232.038.194 0 .35.16.35.354-.001.194-.159.35-.352.35zm4.227.01c-.195 0-.353-.157-.353-.352 0-.194.158-.352.352-.352 1.412-.001 2.82-.007 4.225-.017.209.006.353.155.355.35.001.194-.156.353-.35.354-1.406.01-2.816.016-4.229.017zM336.548 85.408l-.07-.007c-2.62-.528-4.166-.793-4.18-.796-.194-.032-.324-.215-.29-.406.033-.192.216-.32.406-.288.017.003 1.57.27 4.205.8.19.038.313.224.274.415-.035.167-.18.282-.345.282zm8.294 1.812l-.081-.01c-1.384-.324-2.775-.639-4.135-.935-.19-.042-.31-.23-.267-.42.042-.19.229-.31.419-.269 1.363.298 2.754.614 4.141.939.19.044.31.234.264.423-.039.163-.183.272-.341.272zm8.226 2.055l-.091-.012c-1.353-.36-2.733-.714-4.1-1.056-.19-.047-.302-.238-.257-.427.046-.189.24-.304.426-.256 1.374.342 2.754.698 4.11 1.058.19.05.3.243.25.43-.042.159-.183.263-.338.263zm8.156 2.3c-.035 0-.07-.004-.102-.015-1.328-.397-2.694-.794-4.064-1.18-.186-.053-.296-.247-.243-.435.053-.187.247-.296.433-.243 1.374.386 2.744.785 4.075 1.184.186.056.292.252.236.438-.046.153-.183.252-.335.252zm8.072 2.572c-.039 0-.078-.006-.113-.019-1.313-.444-2.666-.888-4.018-1.32-.187-.059-.289-.257-.229-.442.056-.185.257-.288.44-.229 1.36.433 2.715.878 4.032 1.324.184.062.282.262.219.447-.05.146-.187.24-.331.24zm7.955 2.88c-.042 0-.084-.007-.127-.023-1.282-.496-2.613-.994-3.95-1.479-.184-.066-.28-.268-.212-.451.063-.183.267-.277.45-.211 1.346.487 2.68.986 3.966 1.484.18.07.271.274.2.456-.052.14-.186.225-.327.225zm7.818 3.26c-.046 0-.095-.01-.144-.03-1.25-.564-2.557-1.128-3.878-1.678-.18-.074-.264-.28-.186-.46.074-.18.282-.264.458-.19 1.327.552 2.637 1.12 3.895 1.685.18.08.257.288.18.466-.06.13-.191.208-.325.208zm7.603 3.726c-.056 0-.112-.014-.169-.042-1.2-.645-2.465-1.292-3.754-1.922-.176-.086-.246-.297-.162-.472.085-.174.296-.246.472-.161 1.296.634 2.567 1.285 3.779 1.934.172.092.236.305.144.477-.063.118-.186.186-.31.186zm7.269 4.33c-.067 0-.134-.02-.197-.06-1.127-.75-2.325-1.505-3.564-2.241-.17-.1-.222-.316-.123-.483.098-.167.313-.222.482-.123 1.25.742 2.462 1.503 3.596 2.262.162.107.207.326.098.488-.067.101-.18.157-.292.157zm6.705 5.141c-.084 0-.165-.03-.236-.09-.996-.894-2.088-1.792-3.236-2.67-.155-.119-.187-.34-.067-.494.116-.154.338-.185.493-.066 1.166.889 2.268 1.799 3.282 2.706.144.13.159.352.028.497-.07.078-.165.117-.264.117zm5.663 6.238c-.11 0-.218-.052-.289-.149-.768-1.087-1.652-2.176-2.623-3.24-.134-.144-.124-.366.02-.498.142-.131.367-.121.497.022.993 1.086 1.895 2.199 2.684 3.31.109.158.074.378-.085.49-.063.044-.134.065-.204.065zm3.652 7.525c-.155 0-.296-.103-.342-.26-.352-1.291-.845-2.588-1.468-3.854-.085-.174-.014-.385.162-.471.176-.086.387-.014.472.16.64 1.306 1.151 2.646 1.514 3.98.053.188-.056.381-.247.433l-.091.012zm.472 8.351l-.046-.003c-.194-.025-.331-.202-.306-.395.028-.21.056-.423.08-.635.1-.814.152-1.636.152-2.44 0-.359-.01-.72-.028-1.074-.014-.194.137-.36.33-.37.191-.01.36.137.37.332.022.366.032.74.032 1.112 0 .833-.053 1.683-.155 2.526-.028.214-.052.427-.08.64-.025.177-.177.307-.35.307zm-1.493 8.314l-.078-.009c-.19-.043-.31-.232-.264-.422.31-1.36.595-2.746.842-4.123.035-.191.214-.32.408-.284.19.034.32.217.285.409-.25 1.387-.535 2.785-.852 4.156-.035.163-.18.273-.341.273zm-2.282 8.135c-.04 0-.074-.006-.113-.018-.183-.062-.282-.261-.222-.446.44-1.33.856-2.685 1.233-4.024.052-.187.246-.296.433-.244.19.053.3.247.246.434-.38 1.35-.8 2.715-1.243 4.057-.05.147-.187.24-.334.24zm-3.036 7.886c-.05 0-.095-.01-.141-.03-.18-.078-.26-.286-.183-.464.563-1.283 1.102-2.593 1.602-3.893.07-.182.278-.272.458-.203.18.07.271.274.2.456-.503 1.31-1.049 2.63-1.616 3.923-.056.132-.186.21-.32.21zm-3.74 7.579c-.06 0-.116-.014-.173-.044-.169-.093-.232-.307-.137-.478.676-1.23 1.331-2.486 1.947-3.734.089-.174.296-.246.472-.16s.247.297.162.472c-.623 1.257-1.281 2.523-1.965 3.762-.063.116-.183.182-.306.182zm-4.395 7.223c-.067 0-.134-.02-.194-.06-.162-.108-.208-.327-.098-.488.778-1.163 1.542-2.357 2.268-3.551.102-.166.317-.22.482-.118.166.1.222.318.12.484-.733 1.202-1.5 2.406-2.286 3.577-.067.1-.18.156-.292.156zm-5.004 6.816c-.078 0-.155-.025-.219-.077-.151-.122-.176-.344-.052-.496.87-1.085 1.732-2.21 2.563-3.341.117-.157.335-.191.493-.076.159.115.19.336.078.492-.838 1.14-1.708 2.273-2.589 3.367-.066.086-.169.131-.274.131zm-5.6 6.339c-.088 0-.18-.034-.246-.1-.141-.137-.141-.36-.007-.499.947-.969 1.912-2.008 2.866-3.089.13-.146.353-.159.497-.03.148.128.162.35.032.496-.962 1.09-1.934 2.138-2.892 3.116-.067.07-.158.106-.25.106zM263.575 214.001l-.057-.004c-.192-.032-.322-.212-.291-.404.423-2.608.444-4.167.444-4.182.002-.194.16-.35.352-.35h.004c.194.003.35.162.348.356 0 .065-.02 1.622-.453 4.289-.028.172-.177.295-.347.295zm-2.027 8.218c-.036 0-.073-.005-.11-.017-.184-.06-.285-.26-.224-.445.44-1.345.831-2.705 1.164-4.043.046-.189.238-.304.426-.257.19.047.304.238.257.427-.336 1.354-.732 2.731-1.178 4.092-.049.149-.187.243-.335.243zm-3.17 7.836c-.051 0-.104-.01-.153-.034-.175-.085-.248-.296-.164-.471.612-1.264 1.187-2.557 1.707-3.842.073-.181.279-.268.459-.194.18.072.267.278.194.458-.527 1.3-1.107 2.607-1.726 3.885-.06.125-.186.198-.317.198zm-4.16 7.35c-.066 0-.133-.018-.192-.057-.163-.106-.21-.324-.103-.487.766-1.173 1.5-2.381 2.185-3.59.095-.169.31-.228.48-.133.169.096.229.31.132.48-.69 1.221-1.434 2.442-2.207 3.627-.068.104-.18.16-.295.16zm-5.029 6.78c-.08 0-.16-.027-.226-.082-.149-.125-.168-.347-.043-.496.9-1.075 1.775-2.184 2.602-3.298.117-.156.337-.189.493-.073.156.116.189.336.073.492-.835 1.126-1.72 2.246-2.628 3.331-.07.083-.17.126-.27.126zm-5.774 6.152c-.093 0-.186-.036-.255-.108-.134-.141-.13-.364.012-.499 1.014-.967 2.01-1.97 2.96-2.981.132-.143.355-.15.497-.016.142.133.149.356.015.498-.958 1.02-1.962 2.032-2.986 3.01-.068.064-.156.096-.243.096zm-6.398 5.502c-.105 0-.21-.047-.279-.137-.119-.153-.09-.375.063-.494 1.108-.86 2.204-1.754 3.255-2.658.148-.126.37-.11.497.038s.11.37-.038.497c-1.06.911-2.165 1.813-3.282 2.68-.065.05-.14.074-.216.074zm-6.9 4.854c-.117 0-.231-.057-.298-.163-.105-.163-.056-.381.107-.486 1.187-.757 2.362-1.543 3.494-2.339.16-.112.379-.072.49.086.112.16.074.379-.085.49-1.14.802-2.325 1.594-3.52 2.357-.058.038-.124.055-.189.055zm-7.301 4.233c-.126 0-.249-.067-.312-.187-.09-.172-.025-.384.147-.475 1.249-.659 2.487-1.342 3.682-2.036.168-.098.384-.039.481.127.098.169.04.384-.128.482-1.203.698-2.45 1.388-3.706 2.05-.053.028-.109.039-.164.039zm-7.608 3.655c-.136 0-.265-.08-.323-.211-.078-.18.003-.387.182-.465 1.29-.563 2.578-1.151 3.826-1.75.176-.088.386-.01.47.162.084.176.01.387-.165.472-1.256.602-2.55 1.194-3.85 1.76-.045.022-.093.032-.14.032zm-7.844 3.117c-.144 0-.28-.088-.331-.233-.066-.183.028-.383.211-.45 1.325-.48 2.65-.98 3.937-1.493.18-.07.386.017.458.2.071.18-.017.384-.198.455-1.294.514-2.626 1.02-3.957 1.5-.04.014-.08.02-.12.02zm-8.022 2.63c-.152 0-.292-.098-.338-.253-.055-.187.05-.38.238-.437 1.354-.401 2.707-.824 4.02-1.253.186-.064.384.038.445.225.06.183-.04.384-.225.444-1.32.433-2.68.855-4.04 1.26-.034.011-.067.015-.1.015zm-8.154 2.191c-.159 0-.303-.11-.342-.271-.045-.187.07-.377.26-.423 1.37-.334 2.744-.683 4.082-1.042.19-.05.381.06.432.25.05.186-.061.38-.25.43-1.343.362-2.722.71-4.099 1.045l-.083.011zm-8.252 1.789c-.165 0-.313-.116-.345-.285-.037-.19.088-.374.278-.412 1.384-.268 2.773-.553 4.13-.846.19-.042.377.078.418.268.041.19-.08.377-.27.42-1.36.295-2.754.58-4.143.851l-.068.004zm-8.322 1.433c-.171 0-.322-.123-.348-.3-.03-.193.103-.372.296-.4 1.396-.212 2.796-.437 4.161-.673.193-.032.374.098.407.289.033.19-.096.373-.288.405-1.37.236-2.774.464-4.175.676l-.053.003zm-8.373 1.106c-.177 0-.33-.134-.35-.31-.021-.194.117-.37.31-.39 1.408-.163 2.816-.335 4.186-.515.191-.028.37.11.395.303.025.194-.11.37-.303.394-1.374.183-2.786.356-4.198.515l-.04.003zm-8.406.814c-.182 0-.337-.141-.352-.324-.015-.194.13-.363.323-.38 1.412-.113 2.826-.237 4.202-.37.19-.018.365.123.384.316.02.194-.123.367-.316.384-1.38.134-2.798.257-4.213.374h-.028zm-8.43.545c-.186 0-.342-.148-.351-.334-.01-.194.14-.36.334-.37 1.4-.07 2.817-.151 4.212-.24.19-.01.362.134.374.328.013.194-.135.363-.329.373-1.399.092-2.82.173-4.222.243h-.018zm-8.444.3c-.19 0-.347-.152-.352-.342-.004-.197.15-.356.345-.363 1.415-.028 2.835-.07 4.218-.12.182-.013.358.145.365.339.006.197-.145.359-.34.366-1.387.05-2.809.088-4.227.12h-.009zm-12.676.042h-.005c-1.398-.018-2.821-.05-4.229-.085-.194-.007-.348-.169-.343-.362.006-.19.162-.342.352-.342h.01c1.405.035 2.825.067 4.22.085.195.003.35.165.348.359-.003.194-.16.345-.353.345zm5.264.042l-1.04-.003c-.194 0-.35-.159-.35-.352 0-.194.152-.342.353-.353l1.037.004c1.07 0 2.132-.007 3.185-.018h.003c.193 0 .35.159.352.349.002.197-.154.356-.349.356-1.055.01-2.119.017-3.191.017zM197.569.97c-.176 0-.328-.132-.35-.31-.023-.194.116-.369.309-.392C198.95.1 200.38.01 201.782 0h.002c.194 0 .351.156.353.35.001.194-.155.353-.35.354-1.375.01-2.78.099-4.177.264l-.041.002zm12.59.659l-.08-.01c-1.354-.314-2.74-.55-4.119-.701-.193-.021-.333-.195-.312-.389.022-.193.19-.334.39-.311 1.406.154 2.82.395 4.2.716.19.044.308.233.264.422-.037.163-.182.273-.342.273zm-20.827 1.173c-.149 0-.287-.096-.335-.245-.06-.185.043-.383.228-.443.201-.064.404-.128.607-.19 1.166-.362 2.343-.676 3.497-.935.19-.042.378.077.42.267.043.19-.076.378-.266.42-1.136.255-2.294.565-3.442.92-.202.062-.403.125-.601.189-.036.012-.072.017-.108.017zM218.1 4.465c-.052 0-.105-.011-.155-.036-1.261-.616-2.558-1.164-3.854-1.629-.183-.065-.278-.267-.213-.45.066-.183.267-.279.45-.213 1.321.473 2.642 1.031 3.927 1.66.175.085.247.296.162.47-.062.126-.187.198-.317.198zm-36.625 1.417c-.132 0-.258-.074-.319-.202-.083-.175-.008-.385.168-.469 1.252-.593 2.564-1.158 3.9-1.68.182-.071.386.018.457.2.07.18-.02.385-.2.456-1.321.515-2.619 1.075-3.855 1.661-.049.023-.1.034-.15.034zm43.791 3.043c-.074 0-.15-.024-.213-.073-1.123-.858-2.282-1.662-3.446-2.388-.165-.103-.215-.32-.112-.486.102-.165.319-.215.485-.112 1.183.738 2.36 1.555 3.5 2.427.155.118.185.34.066.494-.069.09-.174.138-.28.138zm-51.106 1.162c-.112 0-.221-.052-.29-.151-.11-.16-.07-.38.09-.49 1.142-.792 2.352-1.556 3.597-2.269.167-.097.383-.038.48.13.097.17.038.385-.13.481-1.228.703-2.42 1.456-3.547 2.237-.06.042-.13.062-.2.062zm57.345 4.538c-.095 0-.19-.038-.259-.113-.953-1.03-1.955-2.027-2.977-2.963-.144-.132-.153-.354-.022-.498.131-.143.354-.153.497-.022 1.037.95 2.053 1.96 3.02 3.004.131.143.123.366-.02.498-.068.063-.154.094-.24.094zm-63.785.911c-.088 0-.176-.033-.244-.099-.14-.134-.145-.357-.01-.498.967-1.004 2.014-1.982 3.112-2.908.148-.126.37-.106.496.042.125.149.107.371-.042.496-1.08.91-2.108 1.872-3.058 2.86-.07.07-.162.107-.254.107zm68.971 5.777c-.12 0-.237-.062-.303-.173-.008-.014-.834-1.406-2.417-3.429-.12-.153-.092-.374.06-.494.154-.12.376-.093.495.06 1.614 2.063 2.434 3.447 2.469 3.505.098.167.043.383-.125.482-.056.033-.118.05-.179.05zm-74.08.932c-.06 0-.122-.015-.177-.047-.168-.098-.226-.313-.128-.482.695-1.198 1.495-2.391 2.378-3.546.118-.154.34-.183.493-.065.155.118.185.339.066.493-.865 1.13-1.648 2.299-2.328 3.472-.065.112-.183.175-.305.175zm-2.164 4.823c-.195 0-.352-.158-.352-.353 0-.035.005-.068.014-.1.03-.11.133-.472.342-1.035.07-.182.273-.275.453-.207.183.068.276.27.208.453-.204.546-.3.885-.324.976-.041.154-.182.266-.341.266zM113.988 302.491c-.178 0-.332-.134-.35-.317-.268-2.659-.297-4.265-.298-4.282-.003-.194.152-.356.346-.36h.006c.192 0 .35.155.353.35 0 .013.028 1.594.294 4.222.02.193-.121.366-.315.387h-.036zm1.251 8.385c-.164 0-.312-.116-.345-.285-.271-1.388-.515-2.8-.724-4.191-.029-.194.104-.373.296-.402.2-.024.372.103.4.296.208 1.384.45 2.782.72 4.163.037.19-.087.377-.278.412l-.069.007zm1.996 8.23c-.153 0-.294-.099-.338-.254-.392-1.345-.76-2.725-1.094-4.106-.046-.19.07-.38.26-.426.189-.046.379.07.424.26.332 1.37.697 2.74 1.086 4.079.055.186-.053.38-.24.433-.032.01-.066.014-.098.014zm2.753 8.005c-.14 0-.271-.085-.326-.222-.52-1.293-1.018-2.634-1.48-3.983-.064-.183.034-.384.217-.447.186-.064.385.035.448.218.46 1.338.954 2.666 1.468 3.948.073.183-.015.387-.196.457-.043.018-.087.029-.13.029zm3.569 7.666c-.126 0-.248-.07-.311-.186-.66-1.23-1.298-2.508-1.899-3.804-.082-.176-.005-.384.172-.465.176-.084.385-.007.467.17.595 1.281 1.228 2.549 1.88 3.764.092.173.028.387-.144.479-.052.028-.11.042-.165.042zm4.442 7.184c-.11 0-.219-.049-.288-.148-.808-1.137-1.598-2.327-2.346-3.539-.102-.165-.05-.384.115-.486.166-.102.382-.053.484.113.74 1.2 1.522 2.38 2.321 3.504.113.158.076.38-.083.493-.062.042-.133.063-.203.063zm5.354 6.53c-.094 0-.187-.04-.256-.113-.963-1.015-1.908-2.089-2.808-3.187-.123-.148-.1-.374.05-.497.15-.123.372-.099.495.05.89 1.088 1.823 2.148 2.774 3.151.134.141.128.363-.013.497-.068.063-.155.098-.242.098zm6.243 5.666c-.075 0-.152-.025-.216-.074-1.11-.863-2.203-1.782-3.25-2.733-.144-.13-.154-.352-.023-.497.13-.144.353-.155.497-.024 1.033.94 2.112 1.845 3.209 2.697.153.12.18.342.061.497-.07.088-.173.134-.278.134zm7.034 4.645c-.058 0-.116-.014-.17-.046-1.234-.683-2.455-1.423-3.63-2.198-.163-.109-.207-.327-.1-.49.107-.161.325-.207.488-.098 1.16.765 2.366 1.497 3.583 2.17.17.095.232.31.137.479-.064.116-.184.183-.308.183zm7.656 3.521c-.041 0-.083-.01-.123-.024-1.332-.497-2.65-1.046-3.917-1.627-.177-.081-.254-.293-.173-.469.08-.176.29-.253.467-.172 1.252.577 2.554 1.116 3.87 1.61.182.066.274.27.206.453-.053.141-.187.23-.33.23zm54.082.363c-.158 0-.302-.11-.341-.268-.047-.19.069-.38.257-.426.565-.14 1.133-.285 1.705-.43.186-.049.38.064.429.254.048.187-.065.38-.254.426-.574.148-1.144.293-1.711.434l-.085.01zm-8.258 1.793c-.166 0-.313-.117-.346-.286-.035-.193.091-.376.282-.412 1.353-.253 2.743-.535 4.131-.838.192-.042.378.081.42.271.04.19-.08.377-.27.42-1.395.302-2.792.584-4.152.841l-.065.004zm-37.746.243l-.078-.007c-1.389-.317-2.769-.677-4.102-1.071-.186-.056-.293-.25-.237-.437.055-.186.252-.296.437-.24 1.319.392 2.684.747 4.058 1.06.19.043.309.23.265.42-.037.165-.182.275-.343.275zm29.395 1.045c-.176 0-.328-.133-.35-.313-.022-.19.116-.366.309-.39 1.37-.163 2.774-.357 4.174-.571.192-.029.373.102.402.292.03.194-.102.373-.294.401-1.408.219-2.821.412-4.199.578l-.042.003zm-21.075.314h-.037c-1.419-.148-2.832-.338-4.2-.56-.192-.032-.323-.211-.292-.405.031-.19.211-.32.405-.292 1.356.222 2.755.408 4.16.556.194.021.334.194.314.387-.02.18-.172.314-.35.314zm12.653.37c-.188 0-.344-.152-.352-.338-.007-.198.144-.36.338-.367 1.375-.056 2.789-.144 4.203-.26.193-.01.364.13.38.324.016.193-.128.362-.322.38-1.424.116-2.848.2-4.232.257l-.015.004zm-4.224.077h-.001c-1.424-.003-2.85-.046-4.24-.116-.194-.01-.343-.176-.334-.37.01-.197.172-.352.37-.334 1.379.07 2.794.112 4.206.116.194 0 .351.158.35.352 0 .194-.157.352-.351.352zM271.175 165.885c-.182 0-.336-.14-.35-.325-.016-.194.129-.364.323-.38 2.785-.22 4.288-.328 4.288-.328.195-.01.363.132.377.327.014.194-.132.362-.326.376 0 0-1.503.108-4.284.328l-.028.002zm-8.48.702c-.18 0-.334-.138-.35-.321-.017-.194.127-.365.32-.381 1.539-.133 2.953-.252 4.235-.359.2-.018.364.128.38.322.017.194-.128.364-.321.38-1.281.107-2.695.226-4.233.358l-.03.001zm-8.45.752c-.18 0-.334-.137-.35-.32-.018-.194.124-.365.318-.383 1.474-.135 2.883-.262 4.224-.381.202-.014.365.126.382.32.018.193-.126.364-.32.382-1.34.119-2.748.246-4.222.38l-.032.002zm-8.439.793c-.18 0-.333-.136-.35-.318-.019-.194.123-.366.317-.385 1.45-.14 2.856-.273 4.219-.401.194-.018.365.124.383.317.018.194-.124.366-.318.384-1.36.128-2.768.262-4.217.402l-.034.001zm-8.43.834c-.178 0-.33-.135-.35-.317-.02-.193.122-.366.316-.386 1.436-.145 2.841-.286 4.214-.421.202-.02.366.122.385.315.02.194-.122.367-.315.386-1.373.135-2.778.276-4.214.421l-.036.002zm-8.423.873c-.178 0-.33-.135-.35-.315-.02-.194.12-.367.313-.388 1.428-.151 2.833-.298 4.212-.44.197-.019.367.12.387.313.02.194-.12.367-.314.387-1.38.143-2.783.29-4.21.44l-.038.003zm-8.417.912c-.177 0-.33-.134-.35-.314-.021-.193.118-.367.311-.388 1.422-.158 2.826-.312 4.21-.461.191-.021.366.119.387.312.021.193-.119.367-.312.388-1.383.15-2.786.303-4.207.46l-.04.003zm-8.412.95c-.176 0-.328-.131-.349-.31-.022-.194.116-.369.31-.391 1.416-.164 2.819-.324 4.205-.48.196-.024.367.116.39.31.021.193-.117.367-.31.39-1.386.156-2.788.316-4.205.48l-.04.002zm-8.405.993c-.176 0-.328-.132-.35-.31-.023-.194.115-.369.308-.392 1.414-.17 2.815-.338 4.203-.501.195-.021.368.115.391.308.023.193-.115.368-.308.391-1.388.164-2.789.331-4.202.501l-.042.003zm-8.4 1.033c-.175 0-.327-.13-.35-.309-.023-.193.113-.369.306-.393 1.41-.177 2.81-.351 4.2-.522.195-.025.369.114.393.307.024.193-.114.369-.307.392-1.389.171-2.789.345-4.198.522l-.044.003zm-8.394 1.076c-.175 0-.326-.13-.349-.307-.025-.193.11-.37.304-.394 1.407-.185 2.806-.366 4.197-.544.196-.025.369.111.394.304.025.193-.112.37-.305.394-1.39.179-2.788.36-4.195.544l-.046.003zm-8.387 1.12c-.174 0-.325-.127-.35-.304-.025-.193.11-.37.302-.396 1.405-.192 2.802-.38 4.194-.567.195-.025.37.11.396.303.026.192-.11.37-.302.396-1.391.185-2.79.374-4.193.565l-.047.004zm-8.38 1.17c-.173 0-.324-.128-.35-.303-.026-.193.108-.371.3-.399 1.402-.2 2.799-.396 4.19-.59.195-.028.371.108.398.3.027.193-.108.37-.3.397-1.392.194-2.788.391-4.189.59l-.05.004zm-8.375 1.217c-.171 0-.321-.126-.348-.3-.028-.193.105-.372.297-.401 1.4-.208 2.795-.413 4.187-.615.191-.03.37.105.399.297.028.193-.105.372-.298.4-1.391.202-2.786.407-4.184.615l-.053.004zm-8.365 1.27c-.17 0-.32-.125-.347-.298-.03-.193.101-.373.294-.403 1.396-.216 2.79-.43 4.182-.642.193-.03.372.104.401.296.03.192-.103.372-.295.4-1.391.212-2.785.426-4.18.642l-.055.004zm-8.34 1.323c-.17 0-.319-.123-.347-.296-.031-.192.1-.373.291-.404 1.393-.226 2.784-.449 4.175-.67.193-.029.372.101.402.293.03.192-.1.373-.292.403-1.39.22-2.78.444-4.172.67l-.057.004zm-8.363 1.389c-.169 0-.318-.121-.347-.293-.033-.192.096-.374.288-.407 1.396-.236 2.791-.47 4.186-.703.195-.031.374.098.405.29.032.192-.098.373-.29.405-1.394.232-2.789.466-4.183.703l-.06.005zm-8.336 1.45c-.168 0-.316-.12-.347-.29-.034-.191.094-.375.285-.408 1.388-.248 2.778-.492 4.168-.734.193-.033.374.095.407.286.034.192-.095.374-.287.408-1.389.241-2.777.486-4.164.733l-.062.005zm-8.323 1.52c-.166 0-.314-.117-.346-.287-.036-.19.09-.375.281-.41 1.385-.26 2.772-.516 4.162-.77.19-.034.375.092.41.283.035.192-.092.375-.283.41-1.39.253-2.775.51-4.159.769l-.065.006zm-8.309 1.597c-.165 0-.312-.116-.345-.284-.038-.19.087-.376.277-.413 1.382-.273 2.766-.542 4.154-.809.19-.038.376.088.413.28.036.19-.089.375-.28.412-1.386.266-2.77.535-4.15.808l-.069.006zm-8.292 1.68c-.164 0-.31-.114-.345-.28-.04-.191.083-.378.273-.417 1.377-.287 2.76-.57 4.146-.851.19-.039.376.085.415.275.038.19-.084.377-.275.415-1.386.28-2.767.564-4.142.85l-.072.008zm-8.274 1.772c-.162 0-.307-.112-.344-.276-.042-.19.078-.378.269-.42 1.372-.302 2.751-.602 4.136-.899.189-.04.377.081.418.271.04.19-.08.378-.271.418-1.383.297-2.76.596-4.132.898l-.076.008zm-8.25 1.876c-.16 0-.305-.11-.343-.272-.044-.19.073-.379.262-.423 1.368-.32 2.743-.638 4.125-.952.19-.044.379.076.422.265.043.19-.076.379-.266.422-1.38.314-2.754.63-4.12.95l-.08.01zm-8.224 1.991c-.158 0-.301-.106-.341-.267-.048-.188.067-.38.256-.427 1.361-.34 2.731-.678 4.11-1.012.19-.044.38.07.425.26.046.19-.07.38-.259.425-1.377.334-2.746.67-4.105 1.01l-.086.011zm-8.19 2.124c-.156 0-.298-.104-.34-.261-.051-.188.06-.381.248-.432 1.353-.363 2.718-.723 4.094-1.08.189-.049.38.065.43.253.048.188-.065.38-.253.429-1.374.356-2.737.715-4.088 1.079l-.092.012zm-8.15 2.276c-.153 0-.294-.1-.339-.254-.054-.187.054-.382.24-.437 1.344-.39 2.702-.777 4.073-1.16.188-.052.381.058.434.245.052.188-.057.382-.245.434-1.368.382-2.724.768-4.065 1.157-.033.01-.066.015-.098.015zm-8.098 2.454c-.15 0-.288-.096-.336-.246-.059-.185.044-.383.23-.442 1.32-.418 2.682-.84 4.046-1.253.187-.057.382.049.439.235.056.186-.05.383-.235.44-1.361.411-2.72.832-4.038 1.25-.035.01-.07.016-.106.016zm-8.03 2.667c-.146 0-.282-.09-.333-.236-.064-.183.033-.384.216-.448 1.303-.455 2.653-.914 4.011-1.365.186-.061.384.038.446.223.06.185-.04.384-.224.446-1.355.449-2.7.907-4 1.36-.039.014-.078.02-.116.02zm-7.94 2.928c-.14 0-.273-.085-.327-.224-.07-.181.019-.385.2-.456 1.283-.501 2.616-1.007 3.962-1.502.183-.067.385.026.452.208.068.183-.026.385-.209.453-1.341.494-2.67.998-3.95 1.497-.041.016-.085.024-.127.024zm-7.808 3.255c-.135 0-.264-.078-.322-.209-.08-.177 0-.385.178-.465 1.256-.56 2.566-1.125 3.894-1.677.177-.075.385.01.46.19.075.18-.01.386-.19.46-1.321.55-2.626 1.112-3.877 1.67-.047.021-.096.031-.143.031zm-7.615 3.68c-.126 0-.249-.069-.312-.188-.09-.173-.024-.386.148-.476 1.206-.635 2.48-1.276 3.788-1.906.177-.084.386-.011.47.164.085.175.011.386-.164.47-1.3.627-2.567 1.264-3.766 1.895-.052.028-.108.04-.164.04zm-7.297 4.257c-.115 0-.228-.056-.296-.16-.106-.163-.06-.38.103-.487 1.135-.741 2.351-1.49 3.613-2.223.167-.098.384-.041.482.127.097.169.04.384-.128.482-1.252.728-2.457 1.469-3.582 2.203-.06.039-.126.058-.192.058zm-6.722 5.075c-.097 0-.194-.04-.263-.118-.13-.145-.117-.367.028-.497 1.002-.893 2.108-1.794 3.286-2.678.156-.117.376-.086.493.07.117.155.086.376-.07.493-1.163.872-2.253 1.76-3.24 2.64-.067.06-.151.09-.234.09zm-5.532 6.252c-.066 0-.133-.02-.192-.058-.163-.107-.209-.325-.102-.488.731-1.116 1.601-2.24 2.585-3.338.13-.145.353-.157.498-.028.144.13.157.353.027.498-.96 1.072-1.809 2.167-2.52 3.254-.068.104-.18.16-.296.16zm-2.973 7.686l-.044-.003c-.193-.025-.33-.2-.305-.394.175-1.375.537-2.758 1.075-4.111.071-.181.276-.27.457-.198.181.072.27.277.197.457-.516 1.298-.863 2.625-1.03 3.941-.023.178-.174.308-.35.308zm1.12 8.283c-.14 0-.274-.085-.328-.225-.541-1.386-.914-2.783-1.107-4.152-.028-.192.107-.37.3-.398.193-.028.37.108.397.3.186 1.314.544 2.659 1.066 3.995.07.18-.02.385-.2.456-.042.016-.086.024-.128.024zm4.335 7.216c-.103 0-.205-.046-.275-.134-.936-1.159-1.766-2.331-2.47-3.48-.1-.165-.049-.383.118-.485.166-.099.382-.05.484.12.687 1.123 1.5 2.267 2.416 3.405.123.151.099.373-.052.493-.066.053-.144.08-.221.08zm5.787 6.149c-.09 0-.18-.032-.248-.102-.99-.987-1.992-1.997-2.978-3.004-.136-.138-.133-.36.006-.497s.362-.134.498.004c.984 1.007 1.983 2.014 2.97 2.996.139.138.14.363.002.5-.069.067-.16.103-.25.103zm6.077 5.87c-.086 0-.172-.031-.24-.095-1.012-.947-2.043-1.93-3.065-2.916-.14-.134-.144-.359-.008-.496.134-.141.358-.145.497-.01 1.02.985 2.048 1.964 3.057 2.908.142.134.15.356.017.497-.07.073-.163.112-.258.112zm6.268 5.667c-.082 0-.165-.029-.231-.089-1.039-.905-2.104-1.848-3.164-2.806-.144-.13-.156-.356-.025-.5.13-.141.353-.155.497-.025 1.058.958 2.119 1.898 3.155 2.8.146.13.162.352.034.5-.07.077-.168.12-.266.12zm6.487 5.412c-.077 0-.154-.024-.219-.077-1.078-.86-2.18-1.758-3.28-2.677-.148-.123-.168-.345-.044-.496.125-.148.347-.17.496-.042 1.094.912 2.193 1.81 3.267 2.665.152.12.177.342.056.493-.07.088-.172.134-.276.134zm6.74 5.093c-.07 0-.142-.022-.203-.067-1.123-.8-2.272-1.641-3.414-2.504-.155-.12-.185-.338-.068-.497.118-.155.338-.186.493-.067 1.137.86 2.28 1.698 3.397 2.494.159.112.195.334.083.493-.07.095-.178.148-.288.148zm7.037 4.67c-.063 0-.126-.018-.183-.054-1.173-.718-2.374-1.486-3.57-2.282-.162-.105-.206-.324-.098-.486.107-.162.327-.207.488-.098 1.19.789 2.383 1.553 3.548 2.268.165.102.218.317.116.482-.066.11-.182.17-.3.17zm7.383 4.102c-.052 0-.105-.014-.155-.039-1.227-.606-2.49-1.271-3.754-1.972-.17-.095-.23-.31-.136-.479.095-.172.309-.232.48-.137 1.252.697 2.505 1.356 3.722 1.958.174.084.246.296.16.472-.062.123-.187.197-.317.197zm36.074 1.204c-.108 0-.214-.049-.283-.14-.116-.156-.084-.377.071-.494 1.123-.838 2.154-1.782 3.066-2.8.13-.144.352-.158.497-.027.145.13.157.352.028.496-.943 1.057-2.01 2.029-3.17 2.895-.063.05-.136.07-.21.07zm-28.298 2.082c-.038 0-.077-.004-.116-.018-1.292-.45-2.624-.965-3.96-1.532-.18-.077-.263-.282-.187-.461.076-.18.283-.264.462-.187 1.321.56 2.64 1.07 3.916 1.514.184.064.281.264.217.448-.05.144-.186.236-.332.236zm20.738 1.584c-.154 0-.296-.102-.339-.257-.052-.186.059-.38.246-.433 1.352-.373 2.661-.863 3.891-1.458.175-.08.386-.01.47.166.085.176.012.387-.164.472-1.268.612-2.617 1.116-4.01 1.5l-.094.01zm-12.564.504l-.055-.007c-1.351-.208-2.753-.5-4.166-.866-.189-.05-.302-.24-.253-.43.049-.187.24-.303.429-.25 1.39.359 2.77.644 4.099.852.192.028.323.208.294.402-.028.172-.178.299-.348.299zm5.358.43c-.384 0-.774-.008-1.17-.022-.195-.007-.347-.169-.34-.366.007-.194.176-.352.365-.338 1.448.053 2.83.007 4.168-.134.192-.02.367.12.387.314.02.193-.12.366-.313.387-1.004.106-2.046.159-3.097.159zM371.243 217.176c-.095 0-.19-.038-.26-.114-1.796-1.95-2.902-3.074-2.913-3.085-.137-.138-.137-.362.004-.498.137-.137.359-.135.496.003.01.012 1.127 1.143 2.93 3.103.134.143.124.366-.02.497-.068.063-.152.094-.237.094zm5.62 6.34c-.098 0-.196-.042-.267-.124-.923-1.079-1.856-2.152-2.775-3.19-.13-.145-.116-.368.028-.497.145-.129.366-.116.497.03.922 1.04 1.86 2.117 2.785 3.2.127.148.11.37-.038.496-.067.057-.148.085-.23.085zm5.392 6.534c-.105 0-.207-.045-.278-.133-.866-1.093-1.76-2.199-2.659-3.286-.123-.15-.102-.372.046-.496.152-.124.373-.102.497.048.901 1.09 1.8 2.2 2.67 3.296.119.152.094.374-.057.495-.064.051-.141.076-.219.076zm5.135 6.733c-.11 0-.215-.05-.285-.144-.814-1.117-1.666-2.257-2.529-3.387-.116-.154-.088-.375.067-.493.155-.12.377-.088.493.066.866 1.134 1.719 2.278 2.54 3.398.112.157.08.377-.078.492-.064.046-.134.068-.208.068zm4.832 6.952c-.117 0-.226-.056-.296-.158-.757-1.152-1.553-2.329-2.367-3.498-.112-.16-.07-.38.088-.49.159-.112.38-.072.49.088.817 1.174 1.616 2.356 2.377 3.512.109.163.063.381-.099.488-.06.04-.127.058-.193.058zm4.44 7.21c-.12 0-.24-.063-.306-.177-.68-1.19-1.405-2.413-2.159-3.633-.102-.165-.053-.382.113-.484.169-.103.384-.05.486.114.757 1.227 1.49 2.456 2.173 3.653.095.169.038.384-.13.48-.057.033-.117.047-.177.047zm3.906 7.507c-.134 0-.26-.075-.32-.204-.571-1.228-1.198-2.5-1.867-3.78-.088-.172-.021-.384.151-.474.173-.09.384-.023.476.149.672 1.29 1.303 2.571 1.877 3.809.084.176.007.386-.17.468-.049.022-.098.032-.147.032zm3.11 7.861c-.152 0-.29-.095-.335-.243-.412-1.278-.891-2.61-1.426-3.954-.07-.184.017-.388.197-.458.183-.074.384.014.458.197.542 1.36 1.024 2.705 1.44 4 .06.184-.042.384-.229.444-.035.01-.07.014-.106.014zm1.827 8.24c-.176 0-.33-.133-.349-.313-.147-1.32-.383-2.708-.704-4.123-.042-.19.078-.38.268-.423.19-.042.377.078.419.268.327 1.44.567 2.856.718 4.201.021.194-.12.366-.313.387l-.039.004zm-.377 8.404l-.077-.011c-.19-.042-.31-.232-.264-.423.3-1.296.479-2.68.531-4.116.008-.194.166-.36.367-.339.193.008.345.17.338.363-.057 1.483-.24 2.913-.55 4.25-.038.166-.183.276-.345.276zm-3.7 7.486c-.089 0-.177-.031-.244-.095-.14-.133-.148-.355-.014-.496.25-.268.475-.535.673-.803.598-.828 1.127-1.708 1.574-2.62.084-.176.292-.25.468-.166.176.088.25.3.162.472-.461.951-1.014 1.87-1.637 2.726-.212.292-.458.588-.73.873-.066.074-.161.11-.253.11zm-7.08 4.47c-.137 0-.263-.078-.323-.212-.078-.176.003-.384.18-.465 1.408-.62 2.662-1.257 3.729-1.898.165-.098.383-.046.482.123.099.166.046.38-.12.483-1.091.655-2.37 1.306-3.807 1.937-.045.02-.095.031-.14.031zm-7.965 2.873c-.152 0-.293-.099-.338-.25-.057-.187.049-.384.236-.44 1.422-.43 2.771-.874 4.01-1.314.184-.067.385.032.448.215.067.183-.028.384-.211.447-1.25.448-2.61.891-4.043 1.328-.035.007-.067.014-.102.014zm-8.185 2.183c-.158 0-.302-.109-.341-.27-.046-.19.07-.381.26-.423 1.42-.338 2.8-.683 4.1-1.029.19-.049.38.064.43.25.052.187-.06.38-.25.43-1.307.349-2.691.694-4.118 1.032l-.08.01zm-8.279 1.786c-.165 0-.31-.116-.345-.282-.039-.19.088-.377.278-.415 1.416-.279 2.81-.564 4.142-.853.193-.042.376.081.419.272.038.19-.081.376-.271.419-1.335.285-2.733.574-4.152.855l-.07.004zm-8.329 1.525c-.169 0-.316-.123-.345-.296-.035-.19.095-.373.286-.405 1.408-.24 2.81-.486 4.166-.733.193-.035.377.092.408.282.035.194-.091.377-.282.412-1.359.247-2.764.493-4.173.733l-.06.007zm-8.36 1.327c-.172 0-.324-.126-.348-.299-.029-.194.102-.373.295-.401 1.416-.212 2.807-.426 4.18-.641.198-.036.374.098.405.292.029.19-.102.37-.292.401-1.377.219-2.771.434-4.187.645l-.053.003zm-8.381 1.18c-.176 0-.328-.13-.349-.306-.028-.19.11-.37.3-.395 1.415-.19 2.81-.38 4.19-.574.197-.028.373.11.398.3.028.193-.106.37-.3.398-1.38.193-2.781.387-4.194.574l-.045.003zm-8.4 1.06c-.175 0-.327-.13-.348-.31-.025-.193.113-.366.306-.39 1.413-.17 2.814-.342 4.198-.518.197-.021.37.112.395.306.024.194-.113.37-.307.395-1.387.172-2.789.345-4.201.517h-.042zm-8.409.965c-.176 0-.328-.134-.349-.317-.02-.19.12-.366.314-.387 1.408-.155 2.81-.31 4.201-.469.19-.028.37.117.39.31.022.194-.115.367-.309.388-1.391.162-2.796.317-4.208.472l-.039.003zm-8.417.877c-.18 0-.33-.134-.348-.317-.021-.194.12-.366.313-.384 1.412-.14 2.814-.285 4.208-.43.194-.02.367.12.388.314.02.194-.12.366-.314.387-1.394.145-2.8.29-4.212.43h-.035zm-8.423.81c-.18 0-.335-.137-.35-.32-.017-.194.124-.367.318-.384 1.409-.13 2.814-.26 4.212-.395.19-.017.366.123.384.317.017.194-.124.366-.317.384-1.398.134-2.804.264-4.216.394l-.031.004zm-8.431.743c-.18 0-.335-.137-.349-.32-.017-.194.127-.367.32-.38 1.41-.12 2.814-.244 4.216-.367.197-.018.363.127.38.32.018.194-.126.363-.32.38-1.402.124-2.807.247-4.216.367h-.031zm-8.41.687c-.183 0-.338-.138-.352-.324-.014-.194.13-.363.324-.377l4.212-.338c.19-.014.363.127.377.32.017.194-.127.367-.32.38-1.402.117-2.808.23-4.213.339h-.028zm-8.455.64c-.183 0-.338-.14-.349-.323-.014-.198.13-.363.324-.377 1.412-.106 2.82-.208 4.233-.317.19-.014.363.13.377.324.014.197-.13.363-.324.38-1.412.106-2.824.212-4.237.314h-.024zm-8.44.596c-.185 0-.34-.141-.352-.328-.013-.193.133-.362.328-.376 1.406-.096 2.813-.19 4.22-.29.196-.017.362.131.376.325.013.193-.133.362-.327.377-1.408.098-2.815.197-4.222.292h-.024zm-8.445.553c-.184 0-.34-.145-.351-.331-.012-.194.135-.36.33-.374 1.404-.088 2.811-.18 4.22-.27.2-.008.363.133.376.327.012.193-.135.362-.329.377-1.41.091-2.818.183-4.223.27h-.023zm-8.447.517c-.185 0-.34-.144-.35-.334-.012-.194.136-.36.33-.37l4.223-.253c.193-.007.361.133.373.33.012.194-.136.36-.33.37-1.412.088-2.82.173-4.225.254l-.02.003zm-8.448.48c-.186 0-.342-.145-.351-.335-.011-.194.137-.36.332-.37 1.4-.077 2.81-.155 4.223-.236.19-.01.361.137.372.331.01.194-.137.363-.332.373-1.414.081-2.823.159-4.225.236h-.02zm-8.452.447c-.186 0-.342-.145-.351-.335-.01-.194.14-.36.334-.37 1.4-.07 2.808-.144 4.225-.218.193-.014.36.137.37.331.01.197-.139.363-.333.373-1.417.074-2.826.148-4.227.219h-.018zm-8.454.415c-.186 0-.342-.144-.351-.334-.01-.194.14-.36.335-.37 1.398-.067 2.807-.134 4.227-.204.193-.015.358.14.369.334.01.194-.14.36-.335.37-1.42.07-2.83.137-4.227.204h-.018zm-8.456.388c-.187 0-.343-.148-.351-.339-.009-.193.142-.355.336-.366 1.396-.06 2.805-.123 4.228-.19.191-.014.36.14.368.338.009.194-.141.36-.336.366-1.423.067-2.833.127-4.229.19h-.016zm-8.457.359c-.188 0-.344-.148-.351-.338-.008-.194.143-.36.337-.367 1.393-.056 2.802-.116 4.229-.176.184-.01.359.141.366.338.009.194-.142.356-.337.367-1.426.06-2.836.12-4.23.176h-.014zm-8.46.33c-.189 0-.345-.147-.352-.337-.007-.194.144-.36.338-.367 1.388-.052 2.799-.105 4.23-.162.192-.007.359.145.366.339.008.193-.143.359-.338.366-1.432.056-2.843.109-4.23.162h-.015zm-8.463.307c-.19 0-.346-.151-.352-.341-.007-.194.146-.356.34-.363 1.38-.05 2.792-.099 4.231-.148.2-.01.358.144.365.338.007.194-.145.356-.34.363-1.439.053-2.85.102-4.232.151h-.012zm-8.467.278c-.19 0-.346-.151-.352-.341-.006-.194.147-.356.341-.363 1.371-.042 2.783-.088 4.233-.137.188-.01.357.148.364.341.006.194-.146.356-.34.363-1.451.05-2.864.095-4.235.137h-.011zm-8.473.25c-.19 0-.346-.151-.352-.341-.005-.194.148-.356.343-.363 1.352-.035 2.765-.077 4.236-.12.191-.003.357.148.363.342.005.194-.148.356-.342.363-1.471.042-2.886.084-4.238.12h-.01zm-8.483.226c-.19 0-.348-.152-.353-.345-.004-.194.15-.356.344-.36 1.307-.031 2.724-.066 4.243-.109h.01c.19 0 .347.152.352.345.005.194-.149.356-.343.36-1.52.042-2.937.077-4.245.109h-.008zm-8.517.186c-.192 0-.348-.151-.352-.345-.004-.193.15-.355.345-.359 1.038-.017 2.473-.05 4.266-.088.208-.007.355.151.36.345.004.194-.15.356-.345.36-1.793.038-3.229.07-4.267.087h-.007z" transform="translate(-23) translate(23 2) translate(43.805 .451)"/>
            </g>
            <g>
                <path fill="#4A7A9F" d="M7.68 61.232c8.448-2.415 20.115 6.035 25.344 2.01 5.23-4.023 5.23-24.538 12.873-29.365 7.644-4.828 51.617-16.092 69.72-6.035 18.102 10.057 22.528 8.046 19.308 18.906-3.22 10.863 1.206 28.563-2.01 32.587-3.22 4.02-31.783 22.123-46.666 20.917-14.882-1.206-70.925-2.412-74.948-4.024C7.278 94.62.842 76.115 2.049 71.69c1.207-4.422 5.632-10.457 5.632-10.457" transform="translate(-23) translate(23 2) translate(374.6 255.972)"/>
                <path fill="#2A516C" d="M122.813 104.005c0 2.814 7.643 35.803 6.436 37.01-1.206 1.205-4.426 3.621-5.632 0-1.206-3.623-14.48-39.828-12.872-41.838 1.608-2.01 12.068 4.828 12.068 4.828M52.29 103.2c0 2.815 7.643 35.804 6.437 37.01-1.207 1.206-4.425 3.622-5.632 0-1.207-3.622-14.482-39.827-12.873-41.837 1.609-2.01 12.068 4.828 12.068 4.828M91.825 108.297c-5.23 8.852-10.042 36.205-8.836 37.816 1.206 1.609 3.26 3.217 4.467 1.609 1.206-1.609 12.872-41.838 12.872-41.838l-8.503 2.413M26.185 107.895c-1.206 3.22-10.057 38.62-12.068 39.827-2.011 1.206-6.034 2.412-6.034.402s5.632-41.033 6.839-41.838c1.206-.804 11.263 1.609 11.263 1.609" transform="translate(-23) translate(23 2) translate(374.6 255.972)"/>
                <path fill="#7FB1D0" d="M76.593 83.356c-4.796.667-69.717.804-70.521 4.024-.805 3.22-4.023 17.7 4.022 18.102 8.046.402 85.811 3.22 87.018-.402 1.206-3.622 8.848-17.298 4.828-18.505-4.024-1.206-10.863-5.23-25.347-3.22" transform="translate(-23) translate(23 2) translate(374.6 255.972)"/>
                <path fill="#6894BB" d="M135.73 73.3c-4.427-4.023-18.103-17.7-26.952-9.655-5.336 4.85-8.185 14.67-11.458 22.853-2.156 5.389-4.497 10.067-7.85 12.146-8.45 5.23-72.135 5.632-76.56 2.412C8.485 97.84 5.267 62.44 7.68 61.232c2.414-1.209-7.24-1.611-7.643 3.62-.402 5.23 2.414 44.252 10.057 45.458 7.644 1.206 80.983 4.02 86.213 2.01 5.23-2.01 29.364 5.633 32.986-4.023 3.622-9.653 6.436-34.996 6.436-34.996" transform="translate(-23) translate(23 2) translate(374.6 255.972)"/>
                <path fill="#F3C1C0" d="M54.069 135.806L51.492 143.159 47.84 141.778 49.53 133.983 54.069 135.806M90.348 136.582L92.199 144.15 88.384 144.985 85.551 137.53 90.348 136.582" transform="translate(-23) translate(23 2) translate(374.6 255.972)"/>
                <path fill="#154541" d="M53.735 141.547l-6.444-.723s-7.3 2.465-9.789 1.998c-2.489-.468-5.532 1.131-3.194 2.16 2.338 1.032 18.213 4.086 18.213 4.086l1.214-7.52M106.431 86.784s-34.422-.19-34.775 9.566c-.352 9.756-15.788 40.887-15.788 40.887l-9.02-1.431s12.017-40.397 12.806-46.17c.789-5.775 34.207-14.175 34.207-14.175l12.57 11.323M92.91 143.08l-6.885 1.609s-1.016 4.566-3.597 4.803c-2.58.237-6.695 1.633-6.52 3.226.174 1.593 11.654.807 11.654.807l8.103-4.772-2.755-5.672" transform="translate(-23) translate(23 2) translate(374.6 255.972)"/>
                <path fill="#177B7C" d="M116.738 78.783s4.448 10.697-4.672 15.3c-7.708 3.894-29.27 1.625-28.78 3.308 1.065 3.675 10.562 41.7 10.562 41.7l-8.951.935S67.452 105.853 67.42 96.048c-.035-9.81 26.78-18.776 26.78-18.776l22.537 1.511" transform="translate(-23) translate(23 2) translate(374.6 255.972)"/>
                <path fill="#F3C1C0" d="M92.047 11.587s1.06 15.325 10.507 13.07l2.057 10.295 7.792-5.854-5.935-22.35L94.852 9.12l-2.805 2.467" transform="translate(-23) translate(23 2) translate(374.6 255.972)"/>
                <path fill="#E56D90" d="M113.113 24.956l-10.173 2.727S90.186 66.185 91.124 72.537c.917 6.203 8.17 6.215 8.17 6.215l18.582 1.755 1.512-22.538-6.275-33.013" transform="translate(-23) translate(23 2) translate(374.6 255.972)"/>
                <path fill="#F3C1C0" d="M79.813 64.913c-.13-.003-.39-.034-.598-.059-.222-.034-.446-.062-.67-.109-.446-.078-.898-.18-1.338-.302-.882-.24-1.736-.555-2.54-.945-.791-.399-1.511-.888-2.153-1.452-.63-.574-1.113-1.256-1.521-2.001l-.07-.128c-.389-.71-1.283-.972-1.994-.586-.642.352-.916 1.113-.68 1.783.412 1.156 1.001 2.27 1.784 3.217.788.938 1.698 1.748 2.674 2.424.978.664 2.013 1.22 3.08 1.674.532.23 1.075.437 1.626.617.274.097.558.178.842.26.299.08.545.152.929.227l.14.028c1.271.249 2.506-.577 2.755-1.849.253-1.271-.577-2.502-1.848-2.755-.134-.028-.284-.04-.418-.044" transform="translate(-23) translate(23 2) translate(374.6 255.972)"/>
                <path fill="#DF487F" d="M113.593 27.179s-12.875-3.328-10.675 10.697c2.2 14.025 7.983 20.501-1.677 22.319-9.659 1.817-22.285 3.818-22.285 3.818l-.23 7.418s39.964 7.42 42.102-2.481c2.138-9.906-.954-30.326-1.627-32.574-.674-2.249-3.84-7.78-5.608-9.197" transform="translate(-23) translate(23 2) translate(374.6 255.972)"/>
                <path fill="#154541" d="M86.745 7.318s1.456 5.232 6.776 4.582c5.32-.65 8.338-2.3 8.338-2.3l2.206 3.193s.633-2.114 1.65-1.323c1.012.791 2.112 2.801 1.08 3.668-1.034.866-1.583-.139-1.583-.139l1.225 1.67s1.15-.377 1.63.335 1.378 3.183 1.378 3.183l.639-.358s-.726-9.538-1.275-13.127c-.545-3.589-.863-5.47-2.733-6.27-3.57-1.524-8.11 1.523-11.882.873-3.771-.65-8.493 1.2-8.493 1.2l1.044 4.813" transform="translate(-23) translate(23 2) translate(374.6 255.972)"/>
                <path fill="#F3C1C0" d="M77.563 65.88s-.767-4.401-2.082-4.775c-1.316-.374-.144 5.348-.144 5.348l2.226-.573" transform="translate(-23) translate(23 2) translate(374.6 255.972)"/>
                <path fill="#FFFFFE" d="M105.144 75.825c-1.334.708-27.528-.483-27.528-.483l.795 2.581 6.143 5.667 20.59-7.765" transform="translate(-23) translate(23 2) translate(374.6 255.972)"/>
                <path fill="#415995" d="M85.42 84.603l-31.66-.219c-.773-.006-1.401-.642-1.396-1.415l-2.85-22.544c.004-.773.642-1.402 1.415-1.396l31.661.221c.773.003 1.4.642 1.397 1.415l2.848 22.541c-.003.773-.642 1.403-1.415 1.397" transform="translate(-23) translate(23 2) translate(374.6 255.972)"/>
                <path fill="#FFFFFE" d="M83.186 84.587l-31.661-.218c-.774-.006-1.402-.642-1.397-1.415l-2.85-22.544c.005-.773.642-1.403 1.415-1.397l31.66.222c.775.003 1.402.642 1.396 1.415L84.6 83.19c-.007.774-.642 1.403-1.415 1.397" transform="translate(-23) translate(23 2) translate(374.6 255.972)"/>
                <path fill="#415995" d="M85.517 84.422l20.19-6.95c.334-.116.515-.48.4-.814l-.15-.434c-.115-.333-.48-.51-.813-.399L84.95 82.776c-.334.115-.511.483-.396.814l.15.436c.112.33.48.511.813.396" transform="translate(-23) translate(23 2) translate(374.6 255.972)"/>
                <path fill="#3C70A8" d="M62.845 72.3c-.01 1.412.917 2.566 2.07 2.575 1.152.006 2.094-1.132 2.104-2.547.009-1.412-.917-2.562-2.07-2.571-1.151-.006-2.094 1.131-2.104 2.543" transform="translate(-23) translate(23 2) translate(374.6 255.972)"/>
                <path fill="#6894BB" d="M88.995 107.483c.253-3.223.786-6.414 1.478-9.572 2.83-2.325 4.912-6.58 6.847-11.413 3.273-8.182 6.122-18.003 11.458-22.853 8.849-8.045 22.525 5.632 26.951 9.656 0 0-2.814 25.343-6.436 34.996-3.622 9.656-27.755 2.013-32.986 4.024-.857.33-3.53.53-7.443.626-.059-1.82-.012-3.644.131-5.464" transform="translate(-23) translate(23 2) translate(374.6 255.972)"/>
            </g>
            <g>
                <path fill="#6AAACA" d="M272.677 58.377c-2.275-.194-3.958-2.196-3.764-4.47.193-2.274 2.194-3.96 4.468-3.766 2.275.195 3.962 2.197 3.765 4.47-.194 2.275-2.194 3.96-4.469 3.766zm-7.906-12.975c-8.374 5.059 7.582 29.526 9.547 31.86 0 0 7.677-13.781 9.252-23.753 1.577-9.972-10.424-13.165-18.799-8.107zM5.613 147.67c-1.237-.106-2.154-1.194-2.048-2.432.105-1.237 1.194-2.154 2.431-2.048 1.237.106 2.154 1.195 2.048 2.432-.106 1.237-1.194 2.154-2.431 2.048zm-4.3-7.058c-4.556 2.752 4.123 16.061 5.192 17.331 0 0 4.176-7.497 5.033-12.921.857-5.425-5.67-7.162-10.225-4.41z" transform="translate(-23) translate(23 2) translate(96.608 2)"/>
                <path fill="#965769" d="M306.81 188.213c-1.64-.14-2.853-1.583-2.713-3.221.139-1.639 1.581-2.853 3.22-2.713 1.639.14 2.854 1.582 2.712 3.22-.139 1.64-1.581 2.854-3.219 2.714zm-5.697-9.349c-6.034 3.645 5.461 21.274 6.879 22.956 0 0 5.53-9.93 6.665-17.115 1.137-7.185-7.51-9.485-13.544-5.84zM52.655 269.27c-1.638-.14-2.853-1.583-2.713-3.22.14-1.638 1.583-2.854 3.221-2.713 1.639.14 2.853 1.582 2.713 3.22-.14 1.64-1.582 2.853-3.22 2.714zm-5.695-9.348c-6.034 3.645 5.46 21.273 6.877 22.955 0 0 5.532-9.929 6.667-17.115 1.135-7.184-7.51-9.485-13.544-5.84zM209.554 11.056c-1.638-.14-2.853-1.582-2.713-3.22.14-1.64 1.582-2.854 3.22-2.714 1.64.14 2.854 1.583 2.714 3.221-.14 1.639-1.582 2.853-3.22 2.713zm-5.695-9.348c-6.034 3.644 5.46 21.273 6.877 22.955 0 0 5.531-9.93 6.667-17.115 1.135-7.184-7.51-9.485-13.544-5.84z" transform="translate(-23) translate(23 2) translate(96.608 2)"/>
                <path fill="#6AAACA" d="M88.568 20.812c-2.568-.22-4.473-2.48-4.253-5.049.22-2.569 2.481-4.472 5.05-4.253 2.568.22 4.472 2.481 4.252 5.05-.22 2.568-2.48 4.472-5.049 4.252zM79.64 6.157c-9.459 5.714 8.56 33.35 10.781 35.986 0 0 8.671-15.566 10.451-26.829C102.652 4.05 89.098.444 79.64 6.157z" transform="translate(-23) translate(23 2) translate(96.608 2)"/>
                <path fill="#965769" d="M38.27 89.552c-1.56-.134-2.718-1.509-2.585-3.07.134-1.562 1.508-2.72 3.07-2.586 1.562.134 2.72 1.509 2.585 3.07-.133 1.562-1.508 2.72-3.07 2.586zm-5.427-8.91c-5.75 3.474 5.205 20.275 6.554 21.877 0 0 5.272-9.463 6.354-16.31 1.082-6.848-7.158-9.04-12.908-5.567zM135.01 102.075c-1.868-.16-3.253-1.804-3.093-3.672.16-1.867 1.804-3.252 3.672-3.092 1.868.16 3.252 1.804 3.092 3.672-.16 1.867-1.803 3.252-3.67 3.092zm-6.492-10.657c-6.878 4.155 6.225 24.251 7.84 26.168 0 0 6.305-11.319 7.6-19.51 1.293-8.19-8.563-10.812-15.44-6.658z" transform="translate(-23) translate(23 2) translate(96.608 2)"/>
                <path fill="#6AAACA" d="M189.003 220.476c-1.314-.113-2.287-1.27-2.175-2.583.112-1.314 1.269-2.287 2.582-2.175 1.314.113 2.288 1.269 2.176 2.582-.113 1.314-1.27 2.288-2.583 2.176zm-4.566-7.496c-4.838 2.923 4.378 17.057 5.514 18.405 0 0 4.435-7.96 5.345-13.722.91-5.76-6.021-7.605-10.86-4.683z" transform="translate(-23) translate(23 2) translate(96.608 2)"/>
            </g>
            <g transform="translate(-23) translate(23 2) matrix(-1 0 0 1 145.736 254.972)">
                <path fill="#2B6EA1" d="M43.149 116.024h4.166v-4.167h-4.166v4.167zm-.463.463h5.092v-5.093h-5.092v5.093z"/>
                <path fill="#2B6EA1" d="M45.194 104.81l7.015 7.556.99-.974-8.014-8.687-8.416 8.712 1.03.933 7.395-7.54zm7 8.22l-7.01-7.55-7.366 7.511-1.714-1.552 9.09-9.408 8.65 9.377-1.65 1.622z"/>
                <path fill="#2B6EA1" d="M51.481 119.264L38.982 119.264 38.982 111.184 39.446 111.184 39.446 118.801 51.018 118.801 51.018 111.647 51.481 111.647 51.481 119.264M43.703 98.638l-.017-.227c.302-.023.61-.036.915-.039l.002.227c-.3.003-.603.016-.9.039zm2.696.064c-.296-.037-.598-.064-.896-.082l.013-.226c.303.017.61.045.911.083l-.028.225zm-4.476.194l-.048-.221c.297-.065.6-.119.901-.163l.033.224c-.296.044-.594.097-.886.16zm6.242.151c-.289-.077-.584-.145-.877-.202l.044-.223c.298.058.598.127.892.206l-.06.22zm-7.97.348l-.079-.213c.287-.105.58-.2.871-.284l.063.218c-.286.083-.574.176-.856.279zm9.674.235c-.277-.116-.56-.224-.843-.32l.074-.215c.287.098.576.208.856.326l-.087.209zm-11.317.493l-.107-.2c.27-.143.546-.277.824-.4l.091.208c-.272.121-.544.253-.808.392zm12.926.317c-.258-.152-.524-.298-.79-.432l.1-.203c.273.137.543.285.805.44l-.115.195zm-14.457.628l-.132-.184c.248-.177.504-.348.762-.508l.12.193c-.254.158-.506.325-.75.499zm15.94.393c-.235-.187-.478-.366-.724-.536l.128-.187c.25.172.499.355.737.544l-.141.179zm-17.328.75l-.156-.165c.222-.209.452-.412.687-.605l.144.175c-.23.19-.458.39-.675.595zm18.66.46c-.207-.215-.424-.427-.646-.628l.153-.168c.225.205.447.42.657.638l-.164.158zm-19.884.86l-.176-.141c.19-.237.393-.47.6-.693l.166.154c-.204.22-.402.448-.59.68zm21.04.518c-.175-.242-.362-.48-.555-.71l.175-.145c.195.233.385.476.564.721l-.183.134zm-22.074.957l-.194-.118c.158-.26.326-.519.5-.768l.186.131c-.172.245-.337.499-.492.755zm23.035.564c-.143-.263-.295-.524-.454-.777l.192-.121c.162.257.317.523.462.79l-.2.108zm-23.86 1.036l-.209-.09c.121-.279.252-.557.392-.828l.203.104c-.138.267-.268.54-.386.814zm24.604.599c-.105-.279-.22-.558-.344-.83l.207-.094c.125.276.243.56.35.845l-.213.079zm-25.204 1.1l-.218-.061c.08-.293.173-.587.275-.874l.214.075c-.1.283-.19.572-.27.86zm25.719.624c-.066-.291-.143-.585-.228-.87l.217-.066c.087.292.166.59.232.886l-.221.05zm-26.08 1.137l-.226-.03c.041-.301.092-.605.154-.903l.223.046c-.06.293-.112.591-.152.887zm26.356.641c-.026-.298-.062-.599-.108-.893l.224-.035c.047.3.084.605.11.908l-.226.02zM31.25 112.38c-.007-.171-.01-.346-.01-.518 0-.305.01-.613.03-.915l.227.015c-.02.297-.03.6-.03.9 0 .169.004.34.01.51l-.227.008zm26.955.137l-.227-.01c.01-.214.015-.43.015-.645 0-.086 0-.171-.002-.256l.227-.005.002.26c0 .22-.005.44-.015.656zM31.443 114.2c-.052-.299-.095-.604-.127-.906l.226-.024c.031.297.073.598.124.892l-.223.038zm26.552.136l-.223-.042c.054-.293.1-.592.134-.89l.225.027c-.035.301-.08.606-.136.905zm-26.115 1.642c-.092-.29-.176-.586-.249-.88l.22-.055c.072.29.154.581.245.866l-.216.069zm25.66.13l-.216-.07c.094-.284.18-.574.254-.865l.22.057c-.076.295-.163.59-.258.878zm-24.985 1.57c-.131-.275-.254-.556-.366-.838l.211-.084c.11.277.23.554.36.824l-.205.098zm24.29.126l-.203-.1c.132-.269.256-.545.37-.821l.21.086c-.115.28-.242.562-.376.835zm-23.39 1.466c-.167-.254-.328-.516-.477-.78l.197-.113c.148.26.305.519.47.768l-.19.125zm22.473.12l-.188-.127c.167-.248.327-.506.477-.764l.196.114c-.152.263-.315.524-.485.777zm-21.367 1.337c-.2-.23-.394-.468-.578-.71l.181-.137c.18.237.372.472.568.697l-.17.15zm20.243.11l-.17-.152c.2-.224.394-.457.577-.693l.18.14c-.187.24-.384.477-.587.704zm-18.949 1.185c-.229-.2-.454-.41-.669-.626l.161-.16c.211.211.432.418.658.615l-.15.171zm17.643.095l-.149-.173c.228-.195.451-.4.665-.608l.159.162c-.217.213-.445.421-.675.619zM37.31 123.13c-.254-.167-.505-.346-.746-.53l.137-.181c.237.181.485.357.735.522l-.126.189zm14.72.079l-.123-.191c.25-.162.5-.335.739-.513l.135.182c-.244.182-.496.357-.751.522zm-13.126.824c-.274-.132-.547-.275-.812-.424l.112-.198c.26.147.53.288.799.417l-.099.205zm11.524.06l-.095-.206c.27-.126.539-.263.8-.408l.11.199c-.266.147-.54.287-.815.415zm-9.82.617c-.291-.093-.581-.197-.864-.31l.084-.21c.277.11.563.212.849.304l-.07.216zm8.114.041l-.067-.217c.285-.087.571-.187.85-.295l.082.212c-.284.11-.575.21-.865.3zm-6.338.397c-.3-.052-.6-.116-.896-.188l.055-.22c.29.07.586.133.88.185l-.039.223zm4.557.024l-.037-.224c.295-.05.592-.108.883-.177l.052.22c-.296.071-.598.131-.898.181zm-2.737.17c-.304-.012-.612-.034-.913-.066l.023-.225c.298.031.6.052.899.064l-.009.227zm.915.004l-.006-.227c.3-.008.6-.027.898-.055l.022.226c-.302.029-.61.048-.914.056zM72.161 99.588c.619-.028 1.172-.15 1.659-.363.487-.214.9-.494 1.238-.843.337-.348.593-.751.767-1.21.174-.46.262-.948.262-1.467 0-.54-.101-.992-.304-1.355-.203-.363-.473-.667-.81-.912-.339-.246-.726-.45-1.164-.613-.437-.164-.887-.32-1.35-.47l-.298 7.233zm.192-14.369c-.576.02-1.082.123-1.52.304-.437.181-.806.42-1.104.715-.299.295-.522.635-.672 1.018-.15.384-.224.783-.224 1.195 0 .498.089.919.267 1.264.178.345.416.639.714.88.299.242.646.448 1.04.62.395.17.806.326 1.232.468l.267-6.464zm.128 6.592c.505.164 1.004.335 1.5.512.493.178.934.406 1.322.683.387.277.702.624.944 1.04.241.416.363.937.363 1.562 0 .605-.1 1.173-.299 1.702-.2.53-.49.996-.87 1.397-.38.402-.847.723-1.403.96-.554.239-1.187.372-1.898.4l-.096 2.444c0 .155-.068.234-.203.234h-.213l.107-2.677c-.476-.008-.913-.06-1.307-.155-.394-.096-.76-.227-1.093-.395-.335-.167-.644-.368-.929-.603-.284-.234-.554-.5-.81-.8l.139-.192c.035-.035.065-.062.09-.08.025-.017.063-.026.112-.026.05 0 .12.042.208.128.09.085.2.192.336.32.135.128.3.267.496.416.196.15.427.291.693.427.267.135.571.249.913.341.341.092.732.143 1.173.149l.309-7.37c-.476-.15-.939-.316-1.386-.497-.448-.18-.849-.41-1.2-.688-.353-.277-.635-.62-.848-1.03-.214-.408-.32-.919-.32-1.53 0-.476.088-.937.266-1.381.177-.445.44-.838.785-1.18.344-.34.77-.617 1.274-.831.505-.213 1.085-.327 1.739-.341l.074-1.92c0-.157.068-.235.203-.235h.213l-.085 2.155c.704.035 1.325.176 1.862.421.537.245 1.036.61 1.498 1.093l-.117.182c-.043.07-.1.106-.17.106-.079 0-.184-.066-.316-.197-.13-.131-.316-.277-.554-.437-.238-.16-.537-.311-.897-.454-.358-.142-.801-.224-1.328-.245l-.277 6.592zM70.433 78.736l-.041-.388c.523-.056 1.059-.08 1.587-.072l-.006.392c-.513-.008-1.033.015-1.54.068zm4.587.35c-.494-.131-1.003-.233-1.51-.302l.052-.388c.524.072 1.048.176 1.558.311l-.1.378zm-7.583.345l-.134-.367c.496-.182 1.009-.334 1.522-.454l.089.382c-.499.116-.996.264-1.477.44zm10.438.8c-.45-.247-.918-.47-1.392-.66l.145-.363c.49.196.972.425 1.436.68l-.189.344zm-13.174.603l-.22-.325c.437-.296.897-.568 1.366-.809l.179.348c-.455.233-.9.498-1.325.786zm15.667 1.2c-.376-.347-.777-.677-1.192-.977l.23-.317c.427.31.841.649 1.228 1.008l-.266.287zm-17.986.82l-.291-.262c.353-.392.733-.767 1.132-1.114l.257.295c-.386.337-.756.7-1.098 1.081zm19.971 1.53c-.28-.429-.59-.844-.92-1.235l.298-.253c.34.403.66.832.95 1.273l-.328.215zm-21.736.99l-.346-.184c.248-.465.527-.92.831-1.354l.32.224c-.294.42-.565.863-.805 1.314zm23.095 1.768c-.168-.483-.368-.961-.595-1.42l.351-.174c.234.474.44.967.614 1.465l-.37.129zm-24.197 1.105l-.38-.094c.128-.513.288-1.023.477-1.516l.366.14c-.184.478-.339.973-.463 1.47zm24.846 1.9c-.047-.51-.124-1.023-.232-1.522l.382-.083c.112.515.192 1.043.24 1.57l-.39.035zm-25.217 1.154h-.391c0-.53.032-1.064.095-1.586l.389.047c-.061.507-.093 1.025-.093 1.539zm25.51 1.98l-.386-.06c.076-.503.124-1.02.139-1.533l.39.012c-.015.53-.063 1.061-.143 1.582zm-25.687.387c-.095-.519-.16-1.05-.19-1.577l.39-.024c.03.513.093 1.027.185 1.53l-.385.07zm24.828 2.667l-.36-.152c.197-.472.369-.962.507-1.455l.377.106c-.143.509-.32 1.013-.524 1.5zm-23.877.358c-.22-.481-.41-.98-.568-1.484l.373-.117c.154.488.338.972.552 1.439l-.357.162zm22.302 2.396l-.313-.235c.307-.41.591-.844.846-1.288l.34.194c-.263.458-.556.905-.873 1.329zm-20.646.307c-.33-.414-.636-.851-.91-1.301l.333-.205c.267.436.564.861.883 1.263l-.306.243zm18.455 1.984l-.248-.302c.396-.325.776-.677 1.13-1.047l.283.27c-.364.382-.757.745-1.165 1.08zm-16.197.242c-.418-.322-.82-.674-1.197-1.045l.275-.279c.365.36.755.701 1.16 1.014l-.238.31zm13.52 1.455l-.168-.354c.463-.22.916-.469 1.349-.743l.209.33c-.446.283-.914.541-1.39.767zm-10.792.162c-.483-.211-.959-.456-1.413-.725l.2-.337c.44.262.902.498 1.37.703l-.157.36zm7.782.835l-.078-.384c.503-.1 1.005-.232 1.49-.394l.123.372c-.5.166-1.018.303-1.535.406zm-4.741.07c-.521-.087-1.042-.208-1.548-.358l.112-.376c.49.147.996.264 1.5.348l-.064.387zm2.178.182c-.199 0-.4-.005-.6-.013l.018-.391c.514.023 1.035.015 1.542-.023l.029.39c-.326.025-.659.037-.99.037z"/>
                <path fill="#7DB6D6" d="M94.297 28.005C77.02 24.12 59.065 38.54 54.192 60.21c-1.349 5.996-1.553 11.918-.78 17.432.986-.6 1.999-1.172 3.043-1.714 19.72-10.223 42.313-5.767 50.463 9.953.969 1.87 1.687 3.813 2.173 5.805 3.5-4.93 6.184-10.833 7.662-17.407 4.873-21.671-5.18-42.389-22.456-46.274"/>
                <path fill="#305A79" d="M89.792 26.584C72.516 22.7 54.56 37.118 49.686 58.79c-1.348 5.997-1.552 11.918-.778 17.432.985-.6 1.998-1.172 3.042-1.714 19.72-10.223 42.313-5.767 50.463 9.953.968 1.869 1.687 3.814 2.173 5.806 3.5-4.93 6.184-10.835 7.662-17.408 4.873-21.671-5.18-42.389-22.456-46.274"/>
                <path fill="#327BAE" d="M56.455 75.928c-1.044.542-7.102 2.962-8.087 3.561 2.023 14.415 5.767 18.048 18.263 20.857 12.035 2.708 34.417 2.666 42.46-8.66-.486-1.992-1.204-3.936-2.173-5.805-8.15-15.72-30.743-20.176-50.463-9.953"/>
                <path fill="#4A7A9F" d="M45.147 118.35c6.867-.18 13.738-.668 20.498-1.933 6.57-1.23 13.042-3.144 19.083-6.027 5.872-2.8 11.307-6.545 15.79-11.28 4.739-5.006 8.23-10.997 10.515-17.486 2.212-6.286 3.86-12.78 4.836-19.373.987-6.672 1.29-13.47.624-20.19-.656-6.627-2.274-13.19-5.14-19.219-2.439-5.132-5.775-9.779-9.846-13.72-1.432-.271-2.902-.468-4.407-.581-17.333-1.308-42.513 40.877-49.706 53.957-7.195 13.08-11.03 11.097-16.025 20.275-7.436 13.667-4.066 25.87.697 35.06 4.326.587 8.74.632 13.08.517"/>
                <path fill="#6894BB" d="M130.128 37.318c-2.685-14.026-13.543-25.327-28.593-28.19.433.416.86.838 1.275 1.27 4.607 4.802 8.101 10.572 10.388 16.812 2.3 6.276 3.399 12.947 3.62 19.614.225 6.818-.456 13.656-1.792 20.34-.665 3.326-1.495 6.62-2.478 9.866-.984 3.254-2.074 6.49-3.52 9.572-2.853 6.088-6.967 11.526-12.063 15.912-4.935 4.25-10.68 7.475-16.735 9.832-6.318 2.458-12.97 3.998-19.681 4.9-3.434.461-6.883.731-10.342.91-3.451.181-6.91.303-10.366.233-2.578-.051-5.189-.202-7.77-.545 3.091 5.962 6.767 10.655 8.455 13.655 4.088 7.266 41.531 17.005 60.498 13.08 10.587-2.19 24.2-5.231 37.606-24.526 13.408-19.294-5.558-67.365-8.502-82.735"/>
                <path fill="#233D63" d="M69.546 8.431c.731-1.976 1.682-3.728 2.968-5.137.24.173.497.326.78.44.551.22 1.096.463 1.616.75-.019.007.779.516.941.633.184.132.36.275.537.416-.465.098-.854.464-1.212 1.127-1.124 2.083-1.503 1.985-1.486 4.393.03 4.227.674 7.218 2.809 10.834.551.935 3.494.718 4.673 1.077.81.16 2.874 3.01 3.058 3.766.182.743 1.014 5.019 1.179 5.765.372 1.688-.89 7.032-1.624 8.59-1.079 2.286-5.543-3.028-7.22-1.138-.207.233-.445.5-.817.247-.275-.356-.279-.789-.31-1.201-.234-3.02-1.006-5.936-1.738-8.856-.906-3.619-2.092-7.158-3.163-10.73-.735-2.445-1.344-4.9-1.415-7.465-.034-1.192.006-2.382.424-3.511"/>
                <path fill="#F1B3AD" d="M52.231 129.09L54.136 137.649 58.394 135.875 55.961 126.202 52.231 129.09M19.905 118.888L15.809 126.641 20.202 128.05 24.617 119.106 19.905 118.888"/>
                <path fill="#233D63" d="M59.802 130.026L50.751 130.863 39.008 87.148 49.91 84.078 57.213 88.996 53.801 89.637 59.802 130.026"/>
                <path fill="#105288" d="M93.951 78.342c.021-.165-2.608 17.228-9.175 17.846-12.25 1.152-42.35-8.276-42.35-8.276l-17.016 34.8-8.53-3.487S28.663 88.53 31.005 85.128c2.342-3.403 6.852-10.23 9.038-9.438 2.186.79 31.055.067 31.055.067l2.736-2.302 20.118 4.887"/>
                <path fill="#F1B3AD" d="M78.925 40.022c.342-.894 2.737-7.157 3.449-9.177.712-2.02-.806-6.884-.806-6.884s-4.955.338-6.458-.78c-1.503-1.118-7.057-13.255-7.057-13.255l6.188-6.19 3.83-3.13 6 8.447 6.388 18.79-.8 8.562-10.734 3.617"/>
                <path fill="#E67838" d="M88.115 30.778s-1.366 4.047-3.63 5.353-5.56 3.891-5.56 3.891-2.362 3.576-2.54 7.942c-.176 4.367.682 13.245-1.14 16.71-1.823 3.466-5.045 8.342-5.045 8.342s11.545 6.133 22.18 6.716l4.644-.667s-1.195-11.904-.326-16.186c.868-4.283-2.369-23.98-3.523-26.049-1.153-2.07-5.06-6.052-5.06-6.052"/>
                <path fill="#F1B3AD" d="M55.864 71.108s1.298-4.933 2.745-5.285c1.446-.35 7.453-.679 10.268.714 2.815 1.394 17.632-.677 18.947-1.396 1.316-.718.783-9.382.783-9.382l3.832 1.691s.33 11.8-1.116 12.15c-1.447.353-20.442.69-21.716 1.062-1.273.373-5.53.736-6.484-.08-.954-.818-2.281-2.909-3.014-2.647-.734.263-3.589 5.007-4.245 3.173"/>
                <path fill="#5993BD" d="M58.556 70.01L83.125 74.181 64.399 75.482 56.984 73.833 58.556 70.01"/>
                <path fill="#377DAC" d="M58.097 74.244l-36.07-1.025c-.881-.025-1.581-.767-1.556-1.648l-2.697-25.755c.025-.881.766-1.582 1.647-1.557l36.07 1.025c.881.025 1.581.767 1.557 1.648l2.697 25.755c-.026.88-.766 1.582-1.648 1.557"/>
                <path fill="#5993BD" d="M55.55 74.171l-36.07-1.025c-.881-.025-1.582-.766-1.557-1.647l-2.697-25.755c.025-.882.767-1.582 1.648-1.557l36.07 1.025c.881.025 1.582.766 1.556 1.648l2.698 25.755c-.026.881-.767 1.581-1.648 1.556"/>
                <circle cx="34.453" cy="57.76" r="3.04" fill="#377DAC"/>
                <path fill="#1A4E70" d="M17.413 75.273l66.36 1.425c.064.002.118-.05.12-.115l.049-2.267c.001-.065-.05-.119-.116-.12l-66.36-1.425c-.064-.001-.118.05-.12.116l-.048 2.266c-.002.065.05.12.115.12"/>
                <path fill="#EC913D" d="M87.391 59.007s-.827-25.019 3.087-24.917c3.914.103 3.112 26.336 3.112 26.336l-6.199-1.419"/>
                <path fill="#E39499" d="M75.234 19.667l.106-.028c1.053-.281 2.813-.751 3.251-1.329.067-.087.192-.104.28-.038.087.067.105.192.038.28-.518.681-2.2 1.134-3.44 1.465-.071-.122-.15-.238-.235-.35M73.045 17.702c.576.204 1.109.25 1.135.253.11.01.206-.072.215-.182.01-.11-.071-.206-.182-.215-.007 0-.712-.063-1.335-.354-.002 0-.17-.09.055-.944.152-.579.427-1.292.649-1.866.16-.415.298-.773.36-.997.028-.106-.037-.216-.141-.244-.106-.03-.216.034-.245.14-.055.204-.19.553-.346.958-.68 1.76-1.114 3.029-.5 3.315.111.052.223.097.335.136"/>
                <path fill="#233D63" d="M75.987 11.318c-.188.28 4.368.946 4.354.455-.013-.491-3.96-1.04-4.354-.455M72.781 10.914c.346.52-2.657 1.71-2.663 1.465-.007-.245 2.236-2.109 2.663-1.465M77.262 13.004c-.106.35.434.889.67.555.237-.334-.52-1.051-.67-.555M71.539 13.405c-.106.35.434.89.67.555.237-.334-.52-1.05-.67-.555"/>
                <path fill="#233D63" d="M77.577 0l-.737.087c-.329.159-.673.2-1.03.121l-.737.087c-4.578 1.02-7.063 4.203-8.599 8.35-.418 1.13-.457 2.32-.425 3.511.072 2.565.682 5.02 1.416 7.466 1.072 3.571 2.257 7.11 3.164 10.73.731 2.92 1.503 5.835 1.737 8.855.032.413.035.846.31 1.201.373.253.61-.013.819-.247 1.677-1.889 3.169-3.918 4.248-6.205.735-1.558.801-3.233.43-4.92-.166-.747-.34-1.49-.52-2.233-.186-.756-1.116-2.228-1.928-2.389-1.179-.358-1.746-1.378-2.298-2.312-2.134-3.616-2.78-6.607-2.808-10.834-.016-2.409.362-2.31 1.486-4.393.684-1.268 1.474-1.479 2.71-.723 1.698 1.04 6.665 4.013 7.012 5.561.054.24.069.49.144.726.246.789.678 1.085 1.448.802 1.092-.402 1.717.31 1.491 1.495-.136.716-.636 1.202-1.27 1.448-.927.36-1.158 1.041-1.16 1.93-.004 1.876.102 3.748.206 5.62.391 3.328 1.81 6.014 4.794 7.74 1.146.663 1.908 3.777 3.219 3.769 1.36-.009 2.121 4.074 3.45 4.4.526.108 2.694.402 2.776-5.602.01-.689 1.505-4.744.244-7.432-.956-2.038-1.625-4.19-2.42-6.293-1.522-4.033-3.324-7.934-5.565-11.614-1.444-2.372-3.257-4.478-5.308-6.347-1.319-1.203-2.997-1.8-4.691-2.291-.52-.151-1.075.056-1.608-.064"/>
                <path fill="#233D63" d="M77.482.79l-.737.086c-.33.159-.673.2-1.031.121l-.736.087c-4.579 1.02-7.064 4.203-8.599 8.35-.418 1.13-.458 2.32-.424 3.511.07 2.565.68 5.02 1.415 7.466 1.072 3.571 2.257 7.11 3.163 10.73.732 2.92 1.504 5.835 1.738 8.855.031.413.035.846.311 1.202.372.252.61-.014.817-.248 1.677-1.889 3.17-3.918 4.249-6.205.734-1.558.8-3.233.429-4.92-.165-.747-.339-1.49-.52-2.233-.185-.756-1.115-2.228-1.927-2.389-1.179-.358-1.747-1.378-2.298-2.312-2.135-3.616-2.78-6.607-2.809-10.834-.016-2.409.362-2.31 1.486-4.393.685-1.267 1.476-1.478 2.71-.723 1.699 1.04 6.665 4.013 7.013 5.561.054.24.068.49.143.726.247.789.678 1.085 1.448.802 1.093-.402 1.718.31 1.492 1.495-.136.716-.636 1.202-1.27 1.448-.927.36-1.159 1.041-1.16 1.93-.004 1.877.101 3.748.205 5.62.392 3.328 1.81 6.014 4.795 7.74 1.146.663 1.909 3.777 3.218 3.769 1.36-.008 2.122 4.074 3.451 4.4.526.108 4.207.827 4.29-5.177.008-.688-.01-5.17-1.27-7.857-.956-2.038-1.626-4.19-2.42-6.293-1.523-4.033-3.324-7.933-5.565-11.614-1.444-2.372-3.258-4.478-5.308-6.347-1.32-1.203-2.997-1.8-4.692-2.291-.519-.15-1.074.056-1.607-.064"/>
                <path fill="#DE447A" d="M58.199 133.517l-5.147.155c-.24.007-.475.066-.69.17-1.491.734-7.743 3.725-10.236 3.616-2.84-.123-5.968 2.135-3.206 2.907 2.237.627 14.555 1.318 19.154 1.558.948.05 1.746-.698 1.763-1.647l.09-5.05c.018-.96-.77-1.738-1.728-1.71M21.228 125.336l-4.963-1.368c-.232-.064-.473-.077-.71-.04-1.642.26-8.497 1.275-10.847.437-2.678-.956-6.332.28-3.921 1.833 1.953 1.257 13.52 5.55 17.843 7.134.892.327 1.874-.151 2.17-1.054l1.577-4.799c.299-.91-.225-1.888-1.15-2.143"/>
            </g>
        </g>
        <g fill="#FFF" opacity=".3">
            <path fill-rule="nonzero" d="M13.832 12.923L10.26 16.495 13.832 20.066 14.832 19.066 12.26 16.495 14.832 13.923zM20.975 12.923L19.975 13.923 22.546 16.495 19.975 19.066 20.975 20.066 24.546 16.495z" transform="translate(-23) translate(363 343)"/>
            <path fill-rule="nonzero" d="M16.722 11.5L18.151 11.5 18.151 21.5 16.722 21.5z" transform="translate(-23) translate(363 343) rotate(-162.897 17.436 16.5)"/>
            <path d="M14.66.497l-.047-.37C15.11.062 15.616.02 16.118 0l.015.374c-.492.019-.987.06-1.472.123zm4.422.023c-.486-.068-.98-.115-1.471-.14l.018-.372c.502.024 1.009.072 1.506.141l-.053.37zm-7.303.62l-.115-.357c.48-.153.97-.286 1.46-.395l.08.365c-.477.107-.958.237-1.425.387zm10.179.051c-.466-.154-.945-.29-1.423-.4l.085-.365c.49.114.98.252 1.455.41l-.117.355zM9.06 2.291l-.177-.33c.444-.238.903-.457 1.364-.652l.146.344c-.451.191-.9.406-1.333.637zm15.604.08c-.43-.237-.877-.456-1.327-.652l.15-.343c.46.201.917.425 1.357.666l-.18.328zM6.593 3.91l-.233-.293c.394-.313.806-.611 1.225-.886l.205.313c-.409.269-.812.56-1.197.866zm20.525.106c-.382-.31-.783-.606-1.19-.879l.21-.31c.416.28.824.581 1.215.898l-.235.29zM4.453 5.947L4.17 5.7c.332-.378.685-.745 1.049-1.09l.257.27c-.355.339-.7.697-1.024 1.066zm24.783.127c-.32-.372-.66-.734-1.012-1.076l.26-.268c.36.35.708.72 1.036 1.1l-.284.244zM2.71 8.331l-.32-.193c.258-.43.54-.854.835-1.26l.302.222c-.29.396-.564.81-.817 1.23zm28.245.145c-.25-.423-.52-.84-.805-1.24l.303-.217c.293.409.57.835.824 1.267l-.322.19zM1.422 10.99l-.35-.133c.178-.47.38-.936.598-1.389l.336.163c-.214.442-.41.9-.584 1.359zm30.791.156c-.168-.46-.36-.92-.57-1.364l.339-.159c.215.454.41.923.582 1.395l-.35.128zM.636 13.836l-.368-.067c.09-.495.202-.99.337-1.474l.36.1c-.131.472-.24.957-.329 1.44zm32.334.163c-.083-.484-.188-.97-.314-1.443l.362-.096c.128.484.237.981.32 1.477l-.368.062zM.373 16.776H0c0-.503.023-1.01.067-1.51l.372.034c-.043.487-.066.984-.066 1.476zm33.205.171l-.375-.004.001-.167c0-.438-.017-.878-.051-1.31l.372-.03c.035.442.053.893.053 1.34v.171zM.21 19.447c-.079-.495-.137-1-.17-1.502l.371-.026c.034.49.091.985.168 1.469l-.369.058zm33.067.505l-.367-.07c.092-.482.164-.974.212-1.463l.372.037c-.05.5-.122 1.003-.217 1.496zM.956 22.373c-.168-.473-.316-.96-.44-1.446l.363-.092c.12.475.265.95.429 1.414l-.352.124zm31.489.481l-.35-.135c.179-.458.337-.93.473-1.4l.36.103c-.14.482-.302.964-.483 1.432zm-30.23 2.263c-.25-.435-.482-.887-.692-1.343l.34-.156c.206.446.433.888.677 1.314l-.324.185zm28.884.443l-.318-.196c.258-.419.5-.854.717-1.293l.336.167c-.224.449-.47.894-.735 1.322zM3.947 27.592c-.324-.384-.634-.788-.922-1.199l.307-.214c.28.402.585.796.9 1.172l-.285.24zm25.345.388l-.278-.25c.327-.364.643-.75.937-1.143l.3.224c-.301.402-.623.796-.959 1.17zm-23.2 1.737c-.386-.32-.763-.66-1.12-1.015l.263-.265c.35.346.718.68 1.096.992l-.239.288zm20.991.323l-.229-.295c.387-.302.766-.624 1.126-.96l.255.274c-.367.343-.755.672-1.152.98zm-18.5 1.387c-.437-.246-.87-.515-1.283-.799l.21-.308c.406.278.828.54 1.256.78l-.183.327zm15.96.244l-.174-.331c.436-.226.866-.476 1.28-.742l.2.315c-.422.271-.862.527-1.306.758zm-13.202.99c-.475-.163-.948-.35-1.407-.555l.152-.341c.449.201.912.384 1.376.543l-.121.353zm10.41.16l-.111-.358c.469-.145.936-.313 1.39-.5l.142.346c-.464.191-.943.363-1.422.511zm-7.476.557c-.498-.074-.998-.173-1.484-.292l.09-.363c.474.116.962.212 1.449.285l-.055.37zm4.52.069l-.044-.371c.488-.059.978-.14 1.458-.241l.077.366c-.49.104-.992.186-1.49.246zm-2.005.118c-.337 0-.678-.01-1.013-.03l.023-.373c.489.03.987.036 1.477.022l.012.374c-.166.005-.334.007-.5.007z" transform="translate(-23) translate(363 343)"/>
        </g>
        <g fill="#FFF" opacity=".401">
            <path d="M7.575 11.055l.433 3.612 13.14-6.452L5.26 2.96l1.757 4.487-2.28 3.793 2.837-.185zm.125 4.178l-.453-3.783-3.195.209 2.552-4.247-1.98-5.056L22.13 8.147 7.7 15.233z" transform="translate(-23) rotate(-12 1024.086 -1114.839)"/>
            <path d="M7.45 11.435l-.078-.365 12.851-2.774-13.422-.68.02-.373 14.827.752c.094.005.169.078.177.171.007.093-.056.177-.147.197L7.45 11.435" transform="translate(-23) rotate(-12 1024.086 -1114.839)"/>
        </g>
        <g fill="#FFF" opacity=".198">
            <g>
                <g fill-rule="nonzero">
                    <path d="M2.93 1.945c-.158-.156-.413-.156-.571 0L.119 4.163c-.158.157-.158.41 0 .566l2.24 2.218c.079.078.182.117.285.117.104 0 .207-.039.286-.117.158-.156.158-.41 0-.566L.975 4.446 2.93 2.511c.158-.157.158-.41 0-.566zM20.924 6.947c.08.078.183.117.286.117.103 0 .207-.039.286-.117l2.24-2.218c.158-.156.158-.41 0-.566l-2.24-2.218c-.158-.156-.414-.156-.572 0-.158.156-.158.41 0 .566l1.955 1.935-1.955 1.935c-.158.157-.158.41 0 .566zM14.18 8.85c.058.029.119.042.178.042.15 0 .293-.082.363-.224l4.026-8.09c.099-.2.016-.439-.184-.536-.2-.099-.442-.016-.54.182l-4.027 8.091c-.098.198-.016.438.184.536z" transform="translate(-23) translate(461 205) translate(3 4.2) translate(0 2.16)"/>
                </g>
                <g transform="translate(-23) translate(461 205) translate(3 4.2) translate(3.273)">
                    <circle cx="5.064" cy="3.135" r="1" fill-rule="nonzero"/>
                    <ellipse cx="7.329" cy="1.151" fill-rule="nonzero" rx="1.163" ry="1.151"/>
                    <path fill-rule="nonzero" d="M7.694 17.659c-1.472.082-3.699-1.661-4.196-1.12-.139.15-1.426 2.599-1.426 2.599-.327.426-.187.553.352.553h8.249c.186 0 .299-.178.2-.314l-.94-1.936c-.06-.08-.175-.114-.279-.081-.48.15-1.444.27-1.96.299z"/>
                    <path d="M4.376 4.696c-.56 0-1.022.457-1.022 1.01 0 .533.426.977.956 1.012l.018 3.566C3.211 13.23 1.657 15.727.744 17.593c-.46.94-.781 1.707-.74 2.4.02.347.161.686.43.923.268.237.63.37 1.075.432H11.143c.445-.063.807-.195 1.075-.432.268-.237.41-.576.43-.922.04-.694-.28-1.462-.74-2.401-.913-1.866-2.468-4.363-3.584-7.31l.018-3.565c.53-.035.956-.479.956-1.011 0-.554-.461-1.011-1.022-1.011h-3.9zm0 .757h3.9c.145 0 .257.113.257.254 0 .143-.112.254-.257.254H7.96c-.212 0-.383.17-.383.379l-.018 4.009c0 .044.009.088.024.13 1.15 3.06 2.752 5.627 3.638 7.439.443.906.686 1.637.663 2.034-.012.199-.062.304-.173.402-.11.097-.313.186-.651.237H1.592c-.338-.05-.542-.14-.65-.237-.113-.098-.162-.203-.174-.402-.023-.397.22-1.128.663-2.034.886-1.812 2.487-4.38 3.638-7.44.015-.04.023-.085.023-.13L5.07 6.34c0-.21-.172-.379-.383-.379h-.31c-.145 0-.257-.11-.257-.254 0-.14.112-.254.257-.254z"/>
                    <path d="M5.972 6.25c-.211.003-.38.175-.377.384v3.157c-.002.137.07.264.19.333.119.07.266.07.386 0 .119-.069.191-.196.189-.333V6.634c.001-.102-.04-.2-.112-.273-.073-.072-.173-.112-.276-.11z"/>
                </g>
            </g>
        </g>
        <g fill="#FFF" opacity=".198">
            <g>
                <path fill-rule="nonzero" stroke="#FFF" stroke-width=".2" d="M21.927 3.067c-.078-.29-.853-1.079-2.08-1.63V.562c0-.027-.004-.054-.01-.08-.067-.25-.362-.335-.672-.39-1.67-.295-5.919.006-8.14 2.705C9.774 1.196 8.016.32 6.025.32 3.633.341 1.255 1.568.052 3.375c-.034.05-.052.11-.052.171V15.94c0 .127.077.242.197.29.118.047.255.018.345-.074 1.438-1.485 4.882-1.772 7.392-1.289 1.459.281 2.509.814 2.743 1.391.021.037.021.044.025.05l.038.045c.047.041.056.048.066.054.06.027.07.032.078.034.027.007.055.012.084.012.152 0 .238-.05.296-.123 3.613-2.15 8.422-1.432 10.22-.554.097.048.213.042.305-.015s.148-.157.148-.265V3.146c0-.026-.003-.052-.01-.079zM5.974.877c1.849-.01 3.52.72 4.799 2.543v11.889l-.112.052c-.601-.495-1.548-.832-2.62-1.039-2.685-.517-5.73-.163-7.372.997l-.109-.055.012-11.66C1.694 1.983 3.852.893 5.974.876zm5.291 14.698l.013-12.193C13.02 1.012 17.34.087 19.238.67l.048.065v11.814l-.076.067c-1.692-.179-3.078 1.08-4.623 1.785-.124.057-1.316.474-1.259.597.057.122.203.175.327.12 1.825-.834 4.32-2.278 5.827-1.967.073.015.148-.003.206-.05.057-.046.09-.115.09-.189V2.131l.1-.061c.694.352 1.282.828 1.498 1.154v11.799l-.093.063c-2.743-1.048-6.934-1.033-9.917.549l-.1-.06z" transform="translate(-23) translate(31 234) translate(4.2 6.6)"/>
                <path d="M19.416 1.398L19.416 12.648 15.264 13.801 13.141 14.972 17.266 14.463 21.376 15.361 21.376 2.742z" transform="translate(-23) translate(31 234) translate(4.2 6.6)"/>
            </g>
        </g>
        <g fill="#FFF" opacity=".198">
            <g>
                <path fill-rule="nonzero" d="M3.244 4.67H10.541V5.67H3.244zM3.244 5.838H10.541V6.838H3.244zM3.244 7.005H9.374V8.004999999999999H3.244zM5.579 3.503H10.541V4.503H5.579z" transform="translate(-23) translate(48 192) translate(6.6 6.6)"/>
                <path fill-rule="nonzero" stroke="#FFF" stroke-width=".4" d="M2.387 16.157c.043.114.152.189.273.189h13.72c.034 0 .069-.008.101-.02l.019-.008c.03-.013.057-.031.08-.054.005-.004.008-.01.012-.014.01-.009.019-.018.027-.029.01-.014.017-.028.023-.044l.007-.012c.013-.032.02-.066.02-.1l.002-.01V4.67c0-.645-.523-1.167-1.167-1.167h-1.168c-.645 0-1.168.522-1.168 1.167v.584h-.875V1.168C12.293.523 11.77 0 11.125 0H1.493C.848 0 .325.523.325 1.168v.583c0 .162.13.292.292.292h.876v6.714H.876c-.288 0-.556.14-.72.377-.164.236-.201.537-.1.806l2.33 6.217zM13.46 5.837c.161 0 .292-.13.292-.291V4.67c0-.322.262-.584.584-.584h1.168c.322 0 .583.262.583.584v9.774l-1.92-5.119c-.128-.34-.455-.567-.82-.568h-1.054v-2.92h1.167zM.91 1.168c0-.322.261-.583.584-.583h8.621c-.103.177-.157.379-.156.584v.291H.908v-.291zm1.167.876h8.173c.162 0 .292-.13.292-.292v-.583c0-.323.262-.584.584-.584.323 0 .584.261.584.584v7.589H2.076V2.043zM.636 9.466c.054-.079.144-.126.24-.125h12.472c.121 0 .23.075.273.189l2.337 6.232H2.863L.603 9.735c-.035-.09-.022-.19.033-.269z" transform="translate(-23) translate(48 192) translate(6.6 6.6)"/>
                <path fill-rule="nonzero" d="M4.412 3.503H5.412V4.503H4.412z" transform="translate(-23) translate(48 192) translate(6.6 6.6)"/>
                <path d="M11.996 5.651L11.996 9.003 13.491 9.003 16.264 15.131 16.264 4.67 15.711 3.795 13.96 3.795 13.491 4.67 13.491 5.502z" transform="translate(-23) translate(48 192) translate(6.6 6.6)"/>
            </g>
        </g>
        <g fill="#FFF" opacity=".198">
            <g fill-rule="nonzero">
                <path d="M17.91 4.69C16.636 1.928 13.789 0 10.487 0 7.19 0 4.349 1.92 3.07 4.673 1.418 4.885.132 6.093.012 7.59c-.007.07-.012.144-.012.226v.003c0 .099.005.197.015.293l.002.01c.01.093.024.185.042.275l.005.02c.02.087.041.173.068.258l.005.015c.028.086.059.17.094.253l.004.006c.44 1.026 1.464 1.797 2.713 1.997 1.045 2.265 3.15 3.968 5.694 4.507.145.835.889 1.472 1.786 1.472 1.002 0 1.814-.791 1.814-1.768 0-.976-.812-1.768-1.814-1.768-.805 0-1.488.513-1.724 1.222-2.344-.538-4.253-2.184-5.115-4.337v-4.6C4.559 2.865 7.283.837 10.487.837c3.083 0 5.723 1.88 6.781 4.525v5.635c1.982 0 3.59-1.424 3.59-3.18 0-1.562-1.272-2.859-2.948-3.127z" transform="translate(-23) translate(157 343) translate(4.8 6.6)"/>
                <path d="M10.531 2.949c-2.638 0-4.777 2.085-4.777 4.657s2.139 4.657 4.777 4.657c2.639 0 4.778-2.085 4.778-4.657S13.17 2.95 10.531 2.95zm0 8.477c-2.16 0-3.919-1.713-3.919-3.82 0-2.107 1.758-3.82 3.92-3.82 2.16 0 3.918 1.713 3.918 3.82 0 2.107-1.758 3.82-3.919 3.82z" transform="translate(-23) translate(157 343) translate(4.8 6.6)"/>
                <path d="M10.103 7.187L8.224 7.187 8.224 8.024 10.96 8.024 10.961 5.067 10.103 5.067z" transform="translate(-23) translate(157 343) translate(4.8 6.6)"/>
            </g>
        </g>
        <g opacity=".198">
            <g>
                <path fill="#FFF" fill-rule="nonzero" d="M5.104 6.723c1.373 0 2.288-1.03 2.288-2.267v-.773c0-1.237-.915-2.268-2.288-2.268-1.373 0-2.288 1.031-2.288 2.268v.773c0 1.288.915 2.267 2.288 2.267z" transform="translate(-23) translate(538 298) translate(1.8 8.4)"/>
                <g stroke="#FFF" stroke-width=".9">
                    <path d="M8.53 13.8v-2.654h3.41c1.707 0 2.844-1.486 2.844-2.654H3.98c-2.672 0-3.98.796-3.98 3.185V13.8" transform="translate(-23) translate(538 298) translate(1.8 8.4)"/>
                    <path d="M11.968 6.938V3c0-1.657 1.343-3 3-3h8.08c1.657 0 3 1.343 3 3v5.677c0 1.657-1.343 3-3 3h-8.42 0M16.192 8.622L20.992 6.626" transform="translate(-23) translate(538 298) translate(1.8 8.4)"/>
                    <path stroke-linecap="square" d="M2.288 11.529L2.288 13.594" transform="translate(-23) translate(538 298) translate(1.8 8.4)"/>
                </g>
            </g>
        </g>
        <g fill="#FFF" opacity=".198">
            <g transform="translate(-23) translate(508 235) translate(6.6 6.6)">
                <ellipse cx="8.7" cy="2.063" rx="2.071" ry="2.063"/>
                <ellipse cx="15.329" cy="14.438" rx="2.071" ry="2.063"/>
                <ellipse cx="2.071" cy="14.438" rx="2.071" ry="2.063"/>
                <g fill-rule="nonzero">
                    <path d="M0.548 13.214L7.469 0.293 6.921 0.002 0 12.923z" transform="translate(1.547 1.65)"/>
                    <path d="M7.379 13.215L14.514 0.298 13.969 0 6.834 12.917z" transform="translate(1.547 1.65) matrix(-1 0 0 1 21.348 0)"/>
                    <path d="M0.562 13.186L14.064 13.186 14.064 12.486 0.562 12.486z" transform="translate(1.547 1.65) matrix(-1 0 0 1 14.625 0)"/>
                </g>
            </g>
        </g>
    </g>
</svg>
